<?xml version="1.0" encoding="UTF-8" standalone="no"?>
<!-- Created with Inkscape (http://www.inkscape.org/) -->

<svg
   xmlns:dc="http://purl.org/dc/elements/1.1/"
   xmlns:cc="http://creativecommons.org/ns#"
   xmlns:rdf="http://www.w3.org/1999/02/22-rdf-syntax-ns#"
   xmlns:svg="http://www.w3.org/2000/svg"
   xmlns="http://www.w3.org/2000/svg"
   xmlns:sodipodi="http://sodipodi.sourceforge.net/DTD/sodipodi-0.dtd"
   xmlns:inkscape="http://www.inkscape.org/namespaces/inkscape"
   width="210mm"
   height="297mm"
   viewBox="0 0 210 297"
   version="1.1"
   id="svg8"
   inkscape:version="0.92.4 5da689c313, 2019-01-14"
   sodipodi:docname="logo_title.svg">
  <defs
     id="defs2" />
  <sodipodi:namedview
     id="base"
     pagecolor="#ffffff"
     bordercolor="#666666"
     borderopacity="1.0"
     inkscape:pageopacity="0.0"
     inkscape:pageshadow="2"
     inkscape:zoom="0.7"
     inkscape:cx="694.53063"
     inkscape:cy="563.36845"
     inkscape:document-units="mm"
     inkscape:current-layer="layer1"
     showgrid="false"
     inkscape:window-width="1920"
     inkscape:window-height="1026"
     inkscape:window-x="0"
     inkscape:window-y="0"
     inkscape:window-maximized="1" />
  <metadata
     id="metadata5">
    <rdf:RDF>
      <cc:Work
         rdf:about="">
        <dc:format>image/svg+xml</dc:format>
        <dc:type
           rdf:resource="http://purl.org/dc/dcmitype/StillImage" />
        <dc:title></dc:title>
      </cc:Work>
    </rdf:RDF>
  </metadata>
  <g
     inkscape:label="Layer 1"
     inkscape:groupmode="layer"
     id="layer1">
    <path
       style="fill:#000000;stroke:#000000;stroke-width:0.26458332;stroke-opacity:1"
       id="path3723"
       d="m 191.51358,36.301836 c -3.02351,-1.945153 -6.16858,-3.704416 -9.28037,-5.505956 -3.33433,-1.957683 -6.57932,-4.06152 -9.89036,-6.057733 -1.42672,-0.783671 -2.77833,-1.696868 -4.20111,-2.485899 -0.42762,-0.147967 -0.7671,-0.448667 -1.17995,-0.620393 -0.36279,0.01999 -0.43581,-0.226514 -0.6884,-0.33052 -0.32679,-0.112952 -0.38744,-0.05737 -0.66252,-0.337688 -0.18789,-0.11632 -0.37248,-0.116257 -0.58414,-0.130173 -0.1386,-0.01078 -0.27516,0.01026 -0.41354,0.0143 -0.14937,-0.234591 -0.27407,-0.319486 -0.51118,-0.419012 -0.1055,-0.03125 -0.18017,0.02762 -0.3137,0.03486 -2.26579,0.225747 6.08029,-3.891435 4.42834,-2.513997 -0.024,0.04171 -0.0365,0.09257 -0.0719,0.125129 -0.0537,0.04935 -0.13669,0.05727 -0.19205,0.104719 -0.1,0.08568 -0.17104,0.20533 -0.26145,0.301811 -0.30395,0.446482 -0.49737,0.931185 -0.6536,1.444786 -0.56328,1.777256 -1.28367,3.501052 -1.98276,5.228147 -1.30922,3.378452 -2.87123,6.644241 -4.51806,9.868548 -1.80182,3.568023 -3.75768,7.055036 -5.65956,10.570065 -2.0098,3.747439 -4.19705,7.394802 -6.29513,11.09236 -2.03868,3.538164 -4.10178,7.063163 -6.24489,10.539338 -2.13732,3.287913 -4.30369,6.555584 -6.39158,9.875575 -2.12253,3.308678 -4.26528,6.602394 -6.26845,9.98537 -1.68352,2.879585 -3.3237,5.784339 -4.96483,8.688234 -1.35809,2.37604 -2.63191,4.797603 -4.02384,7.154263 -1.02971,1.66756 -2.12174,3.29313 -3.25888,4.88875 -0.91366,1.20437 -1.58012,2.5605 -2.32272,3.86944 -0.50229,0.89154 -1.00228,1.7903 -1.61761,2.60985 -0.47125,0.59741 -0.95634,1.18407 -1.45064,1.76263 -0.8359,0.99536 -1.65374,2.00569 -2.4516,3.0318 -1.17889,1.55531 -2.30351,3.14959 -3.49318,4.6975 -1.31624,1.7428 -2.6536,3.46863 -4.06753,5.13342 -1.12134,1.35261 -2.255221,2.69433 -3.426116,4.00439 -0.43906,0.52292 -0.946139,0.98605 -1.38485,1.50871 -0.04623,-0.2731 -0.239813,-0.56144 -0.13869,-0.81931 0.06905,-0.17608 0.355672,-0.12885 0.534583,-0.19021 0.920438,-0.31563 1.832504,-0.5531 2.790463,-0.72249 1.48348,-0.1822 3.0121,-0.0981 4.49283,0.0939 1.19512,0.0946 2.33916,0.38906 3.4707,0.76542 0.85375,0.31946 1.6401,0.77129 2.41428,1.24696 0.75352,0.49937 1.50835,0.9956 2.26228,1.49469 0.70203,0.45979 1.38181,0.96147 2.09696,1.40075 0.66515,0.44529 1.39463,0.77623 2.06787,1.2087 0.61212,0.43576 1.25335,0.83028 1.85308,1.28393 0.57247,0.41712 1.02637,0.9551 1.52949,1.44661 0.48855,0.52685 0.84516,1.15517 1.31486,1.6962 0.3952,0.48639 0.74558,1.01052 1.14989,1.48815 0.2845,0.36677 0.61132,0.71874 0.95378,1.03077 0.0663,0.0611 0.17764,-0.10992 0.19516,-0.10115 0.0611,0.0306 0.0772,0.12638 0.14218,0.14767 0.0556,0.0182 -0.0232,-0.1245 0.005,-0.17554 0.11387,-0.055 0.0576,-0.0119 0.14509,-0.15533 -1.53806,0.88913 -3.06583,1.79632 -4.61419,2.6674 -0.0771,0.0434 0.13286,-0.11724 0.19438,-0.18088 0.15448,-0.15981 0.26935,-0.31229 0.40786,-0.4858 0.87621,-1.21031 1.80254,-2.37627 2.64052,-3.6158 1.72667,-2.84617 3.28244,-5.78839 5.03602,-8.61825 1.97305,-3.0162 4.10737,-5.91781 6.03368,-8.96515 1.85572,-3.12148 3.63146,-6.2864 5.53678,-9.37846 2.09159,-3.21591 4.00176,-6.54419 5.85873,-9.89946 1.7434,-3.37311 3.68752,-6.63176 5.66113,-9.873122 2.01957,-3.113894 3.68992,-6.426657 5.26759,-9.780177 1.24252,-2.879185 2.71286,-5.630053 4.40606,-8.266271 1.61496,-2.354847 3.2031,-4.724567 4.57501,-7.230602 1.10534,-2.129499 1.94969,-4.38046 2.78535,-6.625587 0.79005,-2.180276 1.81815,-4.254622 2.89873,-6.301772 1.05305,-1.87303 2.15603,-3.717359 3.19463,-5.59856 1.0207,-1.861237 1.87771,-3.806663 2.74932,-5.740664 0.88661,-2.116688 1.77301,-4.226785 2.79944,-6.280346 1.3183,-2.476693 3.00917,-4.726493 4.56392,-7.055442 0.87347,-1.267169 1.70185,-2.563358 2.54143,-3.852802 0.0591,-0.08978 0.11813,-0.179559 0.1772,-0.26934 0,0 5.15607,-2.248221 5.15607,-2.248221 v 0 c -0.0644,0.09043 -0.12877,0.180872 -0.19315,0.271309 -0.89648,1.289876 -1.73276,2.620667 -2.64843,3.897667 -1.55008,2.315311 -3.24183,4.545881 -4.58572,6.991242 -1.03418,2.038882 -1.92984,4.134535 -2.79202,6.251088 -0.8756,1.9401 -1.71272,3.902689 -2.724,5.776942 -1.03182,1.886844 -2.123,3.739208 -3.20908,5.595141 -1.07481,2.03246 -2.14462,4.068759 -2.92976,6.236231 -0.83593,2.269982 -1.69346,4.540084 -2.77535,6.706434 -1.35441,2.534697 -2.93995,4.926237 -4.58367,7.281844 -1.71007,2.616244 -3.22351,5.333322 -4.45993,8.208978 -1.57737,3.373816 -3.24874,6.710177 -5.26825,9.845225 -1.97433,3.234219 -3.93295,6.478125 -5.66658,9.850405 -1.85602,3.36077 -3.75169,6.70418 -5.84777,9.92256 -1.90399,3.08963 -3.69692,6.24029 -5.52145,9.37694 -1.91034,3.05694 -4.03257,5.9641 -6.03144,8.96223 -1.76257,2.80519 -3.33074,5.71994 -4.96696,8.59969 -0.77902,1.24061 -1.63424,2.41702 -2.52323,3.57699 -1.16873,1.99995 -3.50966,3.61461 -5.79703,3.82344 -0.16639,-0.0484 -0.0853,-0.006 -0.23294,-0.14557 -0.0266,-0.008 0.0447,0.0735 0.0181,0.0815 -0.11789,0.035 -0.35407,-0.23844 -0.43069,-0.27687 -0.33207,-0.35361 -0.68792,-0.68869 -0.96835,-1.08683 -0.39123,-0.48738 -0.75711,-0.99505 -1.14584,-1.485 -0.4394,-0.54167 -0.80146,-1.14286 -1.28316,-1.65032 -0.48382,-0.47466 -0.92657,-0.99185 -1.4883,-1.38094 -0.5964,-0.43089 -1.2108,-0.83669 -1.81867,-1.25087 -0.68944,-0.41017 -1.41512,-0.75909 -2.07923,-1.21196 -0.69974,-0.46673 -1.39213,-0.94476 -2.09159,-1.41197 -0.75105,-0.49082 -1.49215,-0.99618 -2.25116,-1.47486 -0.75113,-0.44152 -1.5097,-0.86998 -2.34083,-1.14604 -1.09866,-0.36009 -2.2265,-0.58202 -3.37887,-0.68925 -1.456058,-0.14163 -2.943754,-0.23175 -4.389456,0.0428 -0.710351,0.15429 -1.399426,0.33121 -2.087306,0.56862 -0.221972,0.0766 -0.44255,0.15733 -0.661879,0.24121 -0.186997,0.0715 -0.364934,0.28167 -0.556921,0.2249 -0.291246,-0.0861 -0.46064,-0.39596 -0.69096,-0.59394 0.583356,-0.1952 1.005748,-1.05803 1.491391,-1.41794 1.203687,-1.30204 2.366782,-2.64017 3.488779,-4.01342 1.427142,-1.64751 2.769103,-3.36307 4.076522,-5.10688 1.19206,-1.53141 2.31071,-3.11438 3.45711,-4.67804 0.77397,-1.03377 1.59633,-2.02771 2.39031,-3.04542 0.50517,-0.56724 0.98409,-1.1575 1.45992,-1.74583 0.67584,-0.76472 1.18417,-1.65501 1.68112,-2.54365 0.78642,-1.30355 1.41334,-2.70113 2.3281,-3.92671 1.14109,-1.59749 2.26732,-3.20229 3.31465,-4.86416 1.42202,-2.35367 2.72339,-4.77297 4.07987,-7.164515 1.64594,-2.917069 3.30692,-5.826035 5.00043,-8.71574 2.00048,-3.39325 4.13953,-6.69757 6.27792,-10.004899 2.07572,-3.326707 4.22667,-6.602725 6.3909,-9.87212 2.15659,-3.470108 4.21651,-6.999097 6.27337,-10.528773 2.08531,-3.696465 4.27815,-7.332335 6.28181,-11.074929 1.89646,-3.513982 3.85474,-6.995745 5.66076,-10.557449 1.6384,-3.192156 3.20171,-6.422644 4.46006,-9.787057 0.67142,-1.691496 1.34888,-3.387277 1.88368,-5.127047 0.15921,-0.536458 0.25423,-1.087347 0.57143,-1.558257 0.0496,-0.129849 0.23207,-0.542341 0.35046,-0.630369 0.0327,-0.0243 0.0813,-0.0048 0.12198,-0.0072 1.22221,-1.652945 3.31624,-3.137112 5.37578,-2.981015 0.17198,0.02005 0.31467,0.06946 0.4552,0.173924 0.0792,0.04842 0.48568,0.441752 0.35641,0.195004 0.1575,0.0044 0.31159,0.02331 0.46427,0.06409 0.27919,0.07118 0.53303,0.199568 0.75344,0.387191 0.17739,0.09671 0.45211,0.09038 0.6146,0.266206 0.20343,0.155228 0.43131,0.142525 0.6562,0.287066 0.39067,0.222523 0.76821,0.466177 1.16766,0.674313 1.37173,0.845368 2.70222,1.756986 4.09301,2.572295 3.24521,2.062793 6.46857,4.163516 9.79049,6.101961 3.1612,1.812639 6.33332,3.606009 9.50103,5.406255 0,0 -4.71852,3.021222 -4.71852,3.021222 z"
       inkscape:connector-curvature="0" />
    <path
       style="fill:#000000;stroke:#000000;stroke-width:0.26458332;stroke-opacity:1"
       id="path3727"
       d="m 32.215015,155.37192 c 4.888754,-0.94102 9.698845,-2.26756 14.502509,-3.56636 7.812079,-2.22152 15.415577,-5.10932 22.990357,-8.02289 6.447427,-2.38056 12.67923,-5.27523 18.899383,-8.18345 2.864503,-1.42639 5.773446,-2.75769 8.664768,-4.12728 1.183124,2.86553 0.574826,0.67599 -5.58219,4.22186 -0.666652,0.38393 -1.317503,0.8052 -2.025303,1.10661 -0.577567,0.24595 2.166411,-1.26915 1.632323,-0.93926 -1.165794,0.72007 -2.351908,1.40672 -3.527862,2.11008 -1.29772,0.80866 -2.59544,1.61731 -3.893158,2.42597 -8.4889,5.14788 -16.727617,10.69723 -24.913074,16.3113 -5.314233,3.65559 -10.537827,7.44015 -15.712501,11.29001 -1.29582,1.01635 -0.89654,0.69975 -2.034153,1.60319 -0.206817,0.16424 -0.370634,0.58005 -0.620054,0.49323 -0.255783,-0.089 0.04297,-0.86802 -0.214413,-0.78371 -1.242393,0.40697 -6.618041,3.90219 -1.965534,0.92525 8.390803,-5.52271 17.02902,-10.63831 25.855946,-15.43084 1.47919,-0.77504 2.956824,-1.55305 4.437567,-2.32512 2.130137,-1.11066 6.513045,-3.38898 8.692751,-4.46632 3.849203,-1.90252 7.767971,-3.6592 11.6778,-5.43188 4.67958,-2.1186 9.332535,-4.2933 13.936243,-6.57214 0.35501,-0.1685 0.67207,-0.50845 1.06502,-0.50551 0.21087,0.002 0.43523,0.31709 0.36574,0.51619 -0.16222,0.46478 -0.57659,0.80771 -0.94267,1.13684 -0.6137,0.55176 -1.30796,1.00719 -1.97797,1.48902 -0.7469,0.53712 -5.787422,4.01223 -6.292107,4.36079 -7.981936,5.58287 -15.998594,11.11888 -23.888937,16.83105 -5.136267,3.85505 -10.582852,7.27017 -15.752448,11.07689 -0.761069,0.59344 -1.508591,1.15954 -2.240814,1.78503 -0.229272,0.19585 -0.386461,0.50736 -0.671269,0.6064 -0.115459,0.0401 -0.01297,-0.24414 -0.01945,-0.36621 0.257796,-0.22483 1.088292,-0.80807 0.773385,-0.6745 -1.009793,0.42831 -1.927045,1.04834 -2.890565,1.57251 6.651384,-4.49659 12.819967,-9.65717 19.142926,-14.59436 6.360637,-5.1104 13.095283,-9.71726 19.727633,-14.45997 1.927079,-1.41797 3.906922,-2.76278 5.842079,-4.16942 0.403161,-0.29305 0.79933,-0.59561 1.198356,-0.89427 0.303543,-0.22719 0.554776,-0.549 0.909349,-0.68328 1.376918,-0.52147 2.821572,-0.84266 4.232362,-1.26399 -5.614177,4.90319 -11.278893,9.74848 -16.993586,14.53437 -6.319507,5.47886 -12.641329,10.95151 -18.813238,16.59656 -2.818863,2.72093 -5.641811,5.45729 -8.219373,8.41224 -0.343729,0.0874 0.655505,-0.85538 0.39013,-0.75568 -1.15806,0.43505 -2.060961,1.42945 -3.235407,1.81809 -0.83149,0.27515 1.461024,-0.96665 2.178844,-1.46846 2.495677,-1.74467 3.428873,-2.48804 5.929836,-4.37639 7.4123,-5.67185 14.377011,-11.88882 21.142346,-18.30933 4.935477,-4.62254 9.465384,-9.643 14.089629,-14.56844 2.056939,-2.19826 2.952669,-4.07284 6.734399,-4.05521 0.74471,0.003 -1.09583,1.00928 -1.62423,1.53407 -0.7339,0.72888 -1.44121,1.48405 -2.16181,2.22608 -6.597138,6.90202 -12.608376,14.31963 -18.573394,21.76446 -4.435689,5.68144 -8.468238,11.65976 -12.678338,17.50729 -0.11716,0.15577 -1.888755,2.51366 -2.138384,2.83695 -0.242922,0.31461 -0.360918,0.81907 -0.741452,0.93389 -0.221949,0.067 0.165674,-0.7606 -0.05615,-0.69322 -1.303396,0.39587 -2.305923,1.65753 -3.658222,1.82138 -0.823203,0.0997 1.265343,-1.07207 1.898015,-1.60811 6.094799,-5.29755 11.887512,-10.92271 17.635405,-16.59018 5.732018,-5.70723 10.997705,-11.86307 15.918939,-18.27674 2.795291,-3.69039 5.296761,-7.6118 7.232741,-11.82132 0.12557,-0.305 0.25114,-0.61 0.37671,-0.915 -0.021,0.11229 -0.17059,0.37554 -0.0631,0.33687 1.34879,-0.4852 2.50704,-1.83339 3.93674,-1.73032 0.82079,0.0592 -1.07537,1.24718 -1.57571,1.90053 -1.59274,2.07979 -2.9564,4.18326 -4.42533,6.3601 -5.848556,8.89959 -10.839426,18.33118 -15.769955,27.76005 -3.057229,6.01222 -5.910485,12.12589 -8.763148,18.23712 -1.3623,2.84832 -1.415325,3.48864 -6.048682,4.24501 -0.55707,0.0909 0.57195,-0.97338 0.868302,-1.45376 1.177181,-1.90824 2.387944,-3.79555 3.583371,-5.69241 5.768707,-8.82701 11.909374,-17.39409 18.13888,-25.89875 5.184372,-7.07977 10.660412,-13.93813 15.891282,-20.98288 0.49776,-0.70995 1.00111,-1.41602 1.49329,-2.12986 0.38925,-0.56455 0.77428,-1.1321 1.15089,-1.70516 0.28797,-0.43816 0.55164,-0.89206 0.84265,-1.32821 0.1034,-0.15497 0.1662,-0.37593 0.33968,-0.44382 5.76511,-2.25613 5.56084,-3.04399 4.12684,0.23301 -3.82704,8.27411 -7.81528,16.4716 -11.71564,24.71108 -3.71506,8.00326 -7.39845,16.02124 -11.126528,24.01844 -1.399056,2.96667 -2.801154,5.93215 -4.143158,8.9252 -0.714205,1.89597 -0.415949,1.43512 -4.791273,2.28509 -0.534914,0.10392 0.795959,-0.74822 1.145672,-1.16611 2.116333,-2.52892 3.771858,-5.43464 5.477023,-8.23995 5.040519,-8.28031 8.707234,-17.28036 12.278714,-26.2623 2.14415,-5.47369 4.20936,-10.98738 5.84733,-16.63724 0.64284,-2.21734 0.99961,-3.74836 1.54319,-5.95092 0.41009,-1.74893 0.78293,-3.50738 1.07029,-5.28096 0.0521,-0.32163 0.0975,-0.64432 0.14203,-0.96708 0.0287,-0.208 -0.10797,-0.52673 0.0775,-0.62511 1.58653,-0.84148 3.31965,-1.37136 4.97947,-2.05703 -1.37954,7.59419 -3.07778,15.12528 -4.67094,22.67639 -2.15575,10.57815 -4.01577,21.21317 -5.93758,31.83538 -1.08309,5.68953 -2.17606,11.37924 -3.46054,17.02737 -0.10134,0.43132 -0.20329,0.8625 -0.30402,1.29396 -0.23308,0.9983 -0.19469,0.83577 -0.39273,1.72053 -0.0346,0.15459 0.0371,0.39152 -0.10384,0.46375 -5.61085,2.87455 -5.41727,3.80179 -4.68186,0.70201 2.10509,-7.9141 4.24261,-15.81639 6.53958,-23.67717 2.33688,-7.69936 4.67338,-15.41578 6.30489,-23.30253 0.27546,-1.33155 0.50354,-2.67247 0.75531,-4.00869 0.85408,-4.90207 1.32762,-9.86072 1.46222,-14.83258 0.0286,-2.84662 -0.73094,-3.27492 5.00155,-3.65049 0.54504,-0.0357 -0.002,1.09242 -0.003,1.63864 -5.3e-4,0.85722 -2e-4,1.71444 -2.6e-4,2.57166 -0.21948,9.97022 -0.2485,19.94072 -0.12817,29.91225 0.31226,11.11782 0.69783,22.23428 1.0825,33.35007 0,0 -4.47031,2.29171 -4.47031,2.29171 v 0 c -0.16793,-11.14752 -0.66433,-22.28436 -0.93964,-33.42914 -0.16013,-9.89911 -0.16803,-19.79873 -0.28182,-29.69804 -0.0369,-0.83581 -0.0654,-1.67203 -0.11082,-2.50741 -0.0284,-0.52109 -0.48384,-1.19694 -0.11059,-1.56166 5.84069,-5.70713 4.9577,-4.37045 4.85337,-1.38452 -0.29312,5.05117 -0.85098,10.08639 -1.75921,15.0661 -0.26195,1.34753 -0.50064,2.6998 -0.78587,4.0426 -1.67884,7.90357 -4.03693,15.64128 -6.37379,23.36853 -2.23368,7.75714 -4.36161,15.54535 -6.10489,23.42981 -0.60463,3.08292 0.0384,1.5716 -5.30624,4.09364 -0.14821,0.0699 0.098,-0.31283 0.14191,-0.47073 0.28373,-1.02074 0.52303,-2.05378 0.81633,-3.07199 1.47705,-5.67663 2.65542,-11.42587 3.82519,-17.17206 2.05726,-10.62393 3.9588,-21.2774 6.04206,-31.89635 1.49718,-7.4094 3.17811,-14.80501 4.07902,-22.31698 1.68443,-0.96842 3.28578,-2.09841 5.05331,-2.90527 0.20095,-0.0917 -0.0781,0.43482 -0.11763,0.65216 -0.39089,2.15099 -0.86101,4.28602 -1.41941,6.40026 -0.56241,2.12885 -1.01453,3.90582 -1.65542,6.0345 -1.70903,5.67641 -3.81343,11.22235 -5.97504,16.73875 -3.54629,8.97163 -7.19468,17.95416 -12.11782,26.27788 -1.737074,2.98182 -1.934601,3.42278 -3.72592,6.14599 -0.456912,0.6946 -0.923021,1.38367 -1.412145,2.05598 -0.307782,0.42305 -0.523637,0.96741 -0.977175,1.22819 -1.793216,1.03106 -3.710591,1.84427 -5.644221,2.57897 -0.165971,0.0631 0.118636,-0.33469 0.177953,-0.50204 1.473478,-3.031 2.966246,-6.05205 4.459936,-9.07325 3.879656,-8.00432 7.635312,-16.06788 11.383722,-24.13429 3.84079,-8.12973 7.76384,-16.2245 11.29602,-24.49527 1.42904,-3.51592 0.21565,-1.55162 5.95144,-4.62138 0.18853,-0.10089 -0.38232,0.2138 -0.51674,0.38009 -0.34301,0.42433 -0.59065,0.91773 -0.89721,1.3691 -0.87339,1.28596 -1.87865,2.66505 -2.7782,3.91761 -5.35742,7.05851 -10.92121,13.95879 -16.17233,21.09819 -6.204685,8.43419 -12.314465,16.93727 -17.945378,25.77008 -1.084442,1.7954 -2.265947,3.72286 -3.317665,5.55602 -0.248965,0.43395 -0.301808,1.04385 -0.72158,1.31604 -1.6046,1.04043 -3.353194,1.88446 -5.163791,2.50006 -0.770567,0.26199 2.343923,-2.76487 1.156711,-2.15029 3.063007,-6.14647 6.059077,-12.32625 9.178864,-18.44423 4.948862,-9.38863 9.906484,-18.80065 15.623066,-27.75043 1.663663,-2.56368 2.484383,-3.88782 4.178333,-6.29755 0.455,-0.64726 0.77105,-1.43857 1.4032,-1.91434 1.80883,-1.36138 3.77246,-2.53095 5.81113,-3.51536 0.1975,-0.0954 0.41851,0.28733 0.41979,0.50665 0.002,0.34616 -0.27419,0.63573 -0.41128,0.95359 -2.02645,4.28178 -4.60519,8.27961 -7.46465,12.05123 -4.955021,6.44502 -10.248791,12.63695 -16.001417,18.38749 -5.681482,5.61709 -11.406441,11.18988 -17.364786,16.51537 -2.729791,2.43026 -3.332401,3.14924 -7.663228,5.21853 -0.235262,0.11241 -0.575919,-0.31744 -0.531077,-0.5743 0.07052,-0.40394 0.536824,-0.62018 0.795203,-0.93858 0.3386,-0.41726 0.663694,-0.8453 0.995428,-1.26804 0.419397,-0.53445 0.838645,-1.06901 1.257964,-1.60351 4.352978,-5.87195 8.497105,-11.89642 12.98752,-17.66544 5.927643,-7.38122 11.876249,-14.75016 18.311754,-21.7006 0.680596,-0.7326 1.351973,-1.47386 2.041785,-2.19779 0.479665,-0.50339 0.866833,-1.13132 1.466238,-1.48374 9.144856,-5.37657 5.931926,-2.97829 3.334006,-0.10745 -4.762695,4.93465 -9.357274,10.03638 -14.378576,14.71647 -6.743116,6.40453 -13.67069,12.61972 -21.024996,18.32153 -2.725002,2.09112 -3.089714,2.40286 -5.75124,4.33154 -0.680841,0.49337 -1.340612,1.01994 -2.057815,1.45878 -2.034791,1.24505 -4.041169,2.55612 -6.19153,3.58882 -0.324163,0.15568 -0.749859,0.0558 -1.074219,-0.0995 -0.134409,-0.0643 -0.03953,-0.29539 -0.05929,-0.44309 2.654297,-3.03654 5.635013,-5.78006 8.511463,-8.59991 6.231329,-5.65346 12.601958,-11.14536 18.944857,-16.67294 5.598631,-4.69212 11.156635,-9.43688 16.570576,-14.34112 1.996329,-0.95069 3.95581,-1.98295 5.98898,-2.85207 0.36329,-0.15529 -0.63827,0.46581 -0.956,0.70064 -2.389528,1.76608 -4.850963,3.43006 -7.263761,5.16433 -6.692067,4.75133 -13.492576,9.35885 -19.895905,14.50262 -6.241989,4.87386 -12.328998,9.95948 -18.809316,14.51819 -2.147141,1.27316 -4.241977,2.63896 -6.441419,3.81947 -0.363225,0.19495 -0.798912,0.36197 -1.203685,0.28388 -0.226179,-0.0436 -0.425436,-0.36421 -0.365328,-0.58658 0.08328,-0.30809 0.458652,-0.44443 0.700357,-0.65284 0.59954,-0.51695 1.763562,-1.40704 2.336549,-1.85278 5.262491,-3.86719 10.835391,-7.29247 16.066566,-11.20577 7.877963,-5.69549 15.889575,-11.20327 23.825911,-16.81682 0.03458,-0.0241 5.707197,-3.97942 6.083506,-4.2536 0.626759,-0.45666 1.194028,-0.9953 1.843273,-1.41938 0.329689,-0.21535 0.689631,-0.41186 1.076082,-0.48752 0.118178,-0.0231 0.373081,0.1378 0.28589,0.22086 -0.272775,0.25986 -0.68181,0.32072 -1.022713,0.48107 -4.530706,2.18611 -9.097547,4.29432 -13.687319,6.35361 -8.36909,3.77245 -16.629059,7.7664 -24.686019,12.17377 -1.422082,0.77667 -2.839648,1.56166 -4.266244,2.33001 -0.05554,0.0299 0.205115,-0.14662 0.151273,-0.11374 -4.319704,2.63756 -8.60375,5.3324 -12.828149,8.12037 -2.182241,1.42004 -5.724038,3.7591 -7.478675,4.53018 -0.254235,0.11172 -0.550661,-0.37816 -0.516416,-0.65374 0.03431,-0.27609 0.440772,-0.33959 0.660979,-0.50962 1.207759,-0.93254 0.769766,-0.59374 2.134015,-1.65963 5.302081,-3.88312 10.640521,-7.71721 16.053819,-11.44423 8.1817,-5.60942 16.416173,-11.15565 24.885853,-16.32311 4.844037,-3.05025 9.682959,-5.91723 14.654385,-8.7791 0.707482,-0.40727 2.816153,-1.64958 2.135322,-1.19917 -3.664693,2.4244 -4.614907,1.16483 -3.039232,2.68811 -2.830552,1.29343 -5.652889,2.60225 -8.453755,3.95949 -6.184429,2.86657 -12.392755,5.68903 -18.791978,8.05246 -7.601931,2.9052 -15.23126,5.78244 -23.063588,8.0139 -4.932625,1.34549 -9.865397,2.71801 -14.867062,3.78603 0,0 4.471072,-3.37292 4.471072,-3.37292 z"
       inkscape:connector-curvature="0" />
    <path
       style="fill:#000000;stroke:#000000;stroke-width:0.26458332;stroke-opacity:1"
       id="path3737"
       d="m 47.474763,223.65433 c -0.144165,4.44893 -0.02071,8.90387 0.117032,13.35161 0.0829,4.26135 0.97965,8.41768 2.117701,12.5034 0,0 -4.749112,2.57642 -4.749112,2.57642 v 0 c -1.041085,-4.16072 -1.953529,-8.36642 -2.048067,-12.67544 -0.163136,-4.40356 -0.296032,-8.80835 -0.428747,-13.21285 0,0 4.991193,-2.54314 4.991193,-2.54314 z"
       inkscape:connector-curvature="0" />
    <path
       style="fill:#000000;stroke:#000000;stroke-width:0.26458332;stroke-opacity:1"
       id="path3739"
       d="m 45.33373,218.79195 c 1.894144,-0.67392 3.794439,-1.2627 5.773642,-1.62441 2.153293,-0.32532 4.349406,-0.2683 6.49106,0.105 1.368245,0.43993 2.437493,1.00396 2.363211,2.64748 -0.01516,0.33536 -0.118885,0.66079 -0.178326,0.99117 -0.730086,1.75084 -1.930641,3.25203 -3.019547,4.78972 0,0 -5.02087,2.1771 -5.02087,2.1771 v 0 c 1.069906,-1.48054 2.182904,-2.94773 3.048697,-4.56022 0.07705,-0.27999 0.189823,-0.55252 0.231143,-0.83995 0.199925,-1.39072 -0.867497,-1.70584 -1.969745,-2.01473 -2.103054,-0.32421 -4.245554,-0.36192 -6.344584,0.0321 -1.985853,0.41418 -3.899491,1.0492 -5.805697,1.73915 0,0 4.431016,-3.44244 4.431016,-3.44244 z"
       inkscape:connector-curvature="0" />
    <path
       style="fill:#000000;stroke:#000000;stroke-width:0.26458332;stroke-opacity:1"
       id="path3741"
       d="m 58.564672,240.84584 c 0.572781,1.18046 0.994836,2.72018 2.158116,3.4603 0.13552,-0.0331 0.276297,-0.0495 0.406557,-0.0994 0.440065,-0.16881 0.854188,-0.39927 1.273161,-0.61517 0.282276,-0.14545 1.111769,-0.61414 0.836634,-0.4556 -4.48473,2.58424 -4.98357,2.94476 -2.927384,1.58117 1.243324,-0.88192 2.503156,-1.78839 3.316062,-3.10153 0.980922,-2.37451 -2.059392,-1.31596 5.257591,-2.99797 0.327869,-0.0754 0.0468,0.67123 0.06657,1.00707 0.02712,0.46078 0.04938,0.92183 0.07407,1.38275 0.189275,3.48567 0.225817,6.99046 -0.247706,10.45728 -0.114781,0.84035 -0.282739,1.67257 -0.424108,2.50886 -0.94859,4.26413 -2.230287,8.49032 -4.236283,12.38181 -0.714709,1.10008 -1.505951,2.26092 -2.656626,2.96058 -2.887546,1.75578 -4.569082,3.24133 -7.503176,3.76806 -1.137493,0.0132 -2.171986,-0.42399 -2.263784,-1.71283 -0.06816,-0.95702 0.247509,-1.45915 0.5829,-2.35445 0.267224,-0.50014 0.502838,-1.01854 0.801672,-1.50047 1.353904,-2.18353 3.127681,-4.09308 4.869483,-5.96522 1.515118,-1.62846 3.065243,-3.22403 4.593558,-4.84013 2.311729,-2.45565 4.707388,-4.82977 7.09472,-7.21123 0,0 4.849847,-2.00571 4.849847,-2.00571 v 0 c -2.416161,2.36914 -4.83281,4.73909 -7.144279,7.21174 -1.506831,1.60642 -3.036419,3.19149 -4.535606,4.80502 -1.69019,1.81914 -3.423862,3.67334 -4.761709,5.77839 -0.290663,0.45734 -0.522126,0.94973 -0.783191,1.42457 -0.28235,0.64522 -0.973481,1.79933 -0.570105,2.5785 0.309083,0.59703 1.169365,0.46464 1.684329,0.43209 2.019962,-0.54189 4.650021,-2.13407 -2.02988,1.62396 -0.351145,0.19754 0.686408,-0.42688 0.99633,-0.68432 0.886638,-0.73649 1.108126,-1.14921 1.80848,-2.07928 0.268918,-0.47905 0.563574,-0.94453 0.806752,-1.43716 1.687737,-3.41892 2.720499,-7.14939 3.611917,-10.83728 0.142666,-0.8239 0.312447,-1.64355 0.428003,-2.47169 0.477068,-3.41893 0.418449,-6.87435 0.160444,-10.30817 -0.03828,-0.44862 -0.06924,-0.89791 -0.114843,-1.34584 -0.03198,-0.31411 -0.361833,-0.73945 -0.117845,-0.93984 3.966657,-3.25783 5.43243,-4.7285 4.812887,-1.91786 -0.713457,1.46144 -1.98955,2.43899 -3.288009,3.37272 -2.590046,1.82651 -1.051213,0.78057 -6.529422,3.9032 -0.640826,0.36527 -1.568566,0.89705 -2.346179,0.86474 -0.203618,-0.008 -0.391687,-0.11274 -0.587529,-0.16912 -1.121862,-0.96453 -1.64978,-2.40892 -2.309103,-3.6994 0,0 4.88669,-2.75309 4.88669,-2.75309 z"
       inkscape:connector-curvature="0" />
    <path
       style="fill:#000000;stroke:#000000;stroke-width:0.26458332;stroke-opacity:1"
       id="path3761"
       d="m 83.796784,232.983 c 0.322791,2.22678 0.450815,4.46045 0.448064,6.70831 -0.03724,2.69312 -0.192024,5.38998 -0.534665,8.06208 -0.291499,2.15733 -0.864045,4.23944 -1.948209,6.13135 -1.740591,2.57148 -4.697344,4.37425 -7.73049,5.01319 -0.556662,0.0159 -1.712733,-0.083 -2.031124,-0.65098 -0.106574,-0.19013 -0.122362,-0.41839 -0.183542,-0.62757 0.02614,-0.24738 0.01836,-0.50078 0.07844,-0.74218 0.259577,-1.04315 0.940379,-1.97617 1.53198,-2.84848 1.876965,-2.76751 -0.396375,0.67207 1.494692,-2.20882 0.980773,-1.42954 1.789634,-2.97042 2.781924,-4.39234 0.614768,-0.88093 0.842158,-1.1148 1.536118,-1.94333 1.848787,-2.00726 3.996809,-3.69974 5.918711,-5.63359 1.234659,-1.32195 2.285439,-2.79513 3.469005,-4.16095 0.641781,-0.79595 1.415184,-1.45853 2.161108,-2.15007 0.203182,-0.0823 0.351055,-0.40407 0.568312,-0.46317 0.03178,-0.009 0.06686,0.026 0.09772,0.0145 1.648439,-0.61339 3.285646,-1.25655 4.92847,-1.88483 -0.967303,1.55531 -1.551574,3.30924 -1.996593,5.07522 -0.232003,0.99984 -0.420023,2.00321 -0.268161,3.0249 0.02159,0.0473 0.03199,0.18229 0.06478,0.14192 0.09266,-0.11407 0.288472,-0.47458 0.15517,-0.41269 -1.465268,0.68026 -2.791899,1.63574 -4.256749,2.31691 -0.296796,0.13801 0.48876,-0.43631 0.717016,-0.67091 0.579786,-0.59589 0.982834,-1.11973 1.508355,-1.76432 0.902946,-1.26377 1.982877,-2.38474 2.939589,-3.6045 1.385853,-1.76291 2.190396,-1.7891 5.580805,-2.57916 0.26471,-0.0617 -0.0113,0.5435 -0.017,0.81524 -0.11821,1.87459 0.0242,3.72864 0.36771,5.57078 0.28118,1.15291 0.67942,2.27848 1.19272,3.34846 1.10033,1.65906 0.3982,0.43264 -4.529255,2.43372 -0.236892,0.0962 0.390092,-0.33313 0.559922,-0.52426 0.229656,-0.25846 0.427617,-0.54351 0.634812,-0.8203 0.397087,-0.53046 1.039701,-1.44125 1.417361,-1.97221 1.23192,-1.86993 2.71128,-3.52759 4.33723,-5.05739 1.82431,-1.59886 3.97737,-2.54689 6.1418,-3.76045 0.36635,-0.2054 0.66075,-0.11824 1.01012,0.0375 0.80848,0.59292 1.0212,1.56257 1.19703,2.49655 0.15218,1.399 0.12471,2.80907 0.12208,4.21404 0.004,0.71625 -0.004,1.43252 0.002,2.14875 -1.66532,0.73842 -3.26371,1.65148 -4.99597,2.21525 -0.20315,0.0661 0.0831,-0.41912 0.1224,-0.62912 0.17821,-0.95305 0.32106,-1.90889 0.43863,-2.87113 0.0149,-0.16319 0.18404,-1.74347 0.28362,-1.79465 5.26743,-2.70751 4.42432,-4.11401 5.42186,-1.78817 0.38856,1.07916 0.7429,2.17644 1.23453,3.21447 0.26942,0.60658 0.65884,0.94528 1.24085,1.22104 1.005,0.33494 2.07802,0.38199 3.12826,0.43103 0.93769,0.0713 1.84777,-0.009 2.66329,-0.49668 2.07104,-1.28771 -1.29178,0.81286 -3.74078,2.0758 -0.23608,0.12175 0.4138,-0.33365 0.61053,-0.51214 0.62356,-0.56574 1.17219,-1.19849 1.71651,-1.83833 0.66008,-0.80944 1.3557,-1.59181 1.98242,-2.42792 1.23373,-1.7439 1.85737,-1.4696 5.41894,-2.38924 0.22635,-0.0584 -0.10345,0.456 -0.16037,0.68274 -0.0661,0.26316 -0.13903,0.52454 -0.20855,0.78681 -0.37635,1.35522 -0.61066,2.73975 -0.74082,4.13845 -0.0642,0.68505 -0.10352,1.40045 0.42325,1.90574 0.47874,0.0684 0.94337,-0.0906 1.36677,-0.30858 0.21137,-0.10881 0.81646,-0.48687 0.60675,-0.37488 -4.29115,2.29148 -5.18526,3.36972 -3.317,1.44212 2.29991,-3.14045 4.81125,-6.11458 7.07934,-9.27837 2.08926,-2.84024 3.57387,-6.01704 4.80428,-9.30128 0.37461,-1.09824 0.78157,-2.20726 0.9306,-3.36482 1.68715,-0.74821 3.30517,-1.67735 5.06143,-2.24464 0.19365,-0.0625 0.005,0.40715 -0.002,0.6105 -0.0123,0.3225 -0.0317,0.6448 -0.058,0.96646 -0.12025,1.47335 -0.33963,2.93399 -0.55172,4.39607 -0.48988,3.50517 -1.19605,6.97269 -1.8471,10.44968 -0.19248,1.37744 -0.63667,2.78605 -0.38314,4.18315 0.15199,0.45315 0.36027,1.19948 0.85923,1.38366 1.64303,-0.26764 3.211,-0.72528 4.73592,-1.39258 1.62681,-1.0204 5.81055,-2.92237 -1.90541,1.0677 -0.281,0.14531 0.51316,-0.37026 0.76422,-0.56274 0.47385,-0.36328 0.68921,-0.55859 1.13044,-0.93835 0.49344,-0.43748 0.96457,-0.89929 1.41694,-1.37891 0.42603,-0.4561 -1.18723,1.23265 0.12726,0.74901 1.50318,-0.55306 2.7694,-1.61063 4.17268,-2.38283 0.26115,-0.14371 -0.50278,0.32104 -0.74404,0.49612 -0.54959,0.39884 -0.83028,0.66698 -1.33546,1.11231 -1.46264,1.60669 -0.81314,3.26384 0.0346,4.99656 0.34258,0.54615 0.70614,1.37128 1.40049,1.58656 0.32357,0.10033 0.47847,-0.0527 0.73411,-0.19466 -1.50701,0.82947 -3.01401,1.65895 -4.52102,2.48842 0.90681,-0.88419 0.98864,-2.23445 1.10307,-3.42742 0.0718,-1.00013 0.0833,-2.00367 0.0628,-3.00584 -0.003,-0.28294 -0.009,-0.56589 -0.0228,-0.84855 -0.73365,-3.02209 6.24579,-3.03371 8.39883,-3.1703 1.44765,-0.008 2.87126,-0.23329 4.29819,-0.44612 0.64518,-0.0879 1.29546,-0.13326 1.94633,-0.14231 0.99863,-0.0368 0.52217,1.79398 0.46554,2.36651 -0.14495,1.47266 -0.21001,2.95129 -0.24656,4.43009 -0.004,0.85937 -0.10481,1.38971 0.64762,1.9103 1.81661,0.74366 3.80976,0.75526 5.74225,0.73916 2.48576,0.0644 4.76733,-0.82896 7.04316,-1.70306 0,0 -4.25846,3.33263 -4.25846,3.33263 v 0 c -2.34016,0.84777 -4.69285,1.662 -7.22273,1.59681 -2.04074,-0.005 -4.18893,-0.0233 -6.04656,-0.97653 -0.87146,-0.73109 -0.93957,-1.26546 -0.8941,-2.37636 0.0532,-1.49213 0.13752,-2.98314 0.2553,-4.47161 0.0321,-0.39704 -0.0146,-1.25843 0.22453,-1.60132 0.0148,-0.0212 -0.28047,0.36397 -0.26022,0.08 -0.63011,0.029 -1.25904,0.0798 -1.88311,0.17448 -1.41862,0.19567 -2.84122,0.32688 -4.27326,0.37456 -0.86841,0.0601 -1.73621,0.13166 -2.60566,0.1754 -0.20341,0.0102 -0.77841,0.14048 -0.61053,0.0252 4.35964,-2.99498 5.50575,-1.25779 4.31968,-2.89834 -0.002,0.2905 -0.003,0.581 -0.002,0.8715 -0.013,1.02622 -0.0314,2.05271 -0.095,3.0773 -0.0963,1.30753 -0.19846,2.66391 -0.87795,3.81968 -4.23071,2.46437 -5.34374,4.90169 -7.63143,0.9463 -0.71483,-1.46537 -1.52984,-3.24497 -0.8293,-4.88353 0.11511,-0.26923 0.30895,-0.49747 0.46342,-0.7462 0.63113,-0.58583 1.27605,-1.26157 2.02132,-1.7057 3.19933,-1.90656 4.01585,-4.4294 6.18673,-2.63402 0.0299,0.0247 -0.0519,0.0578 -0.0778,0.0867 -0.46737,0.50564 -0.95173,0.99579 -1.4624,1.45798 -2.79807,2.50362 -6.14334,4.27227 -9.48613,5.94922 -1.17639,0.46257 -3.32312,1.25479 -4.60272,1.15579 -0.18918,-0.0146 -0.36733,-0.0953 -0.55099,-0.14296 -0.52908,-0.46308 -0.87635,-1.09744 -1.05857,-1.77417 -0.31673,-1.48672 0.13293,-2.97328 0.40094,-4.43555 0.71583,-3.46483 1.45989,-6.92581 1.89769,-10.4404 0.19158,-1.43179 0.39716,-2.8628 0.48381,-4.30598 0.0183,-0.30432 0.0279,-0.60925 0.0301,-0.91412 10e-4,-0.18716 -0.17449,-0.45668 -0.0192,-0.56117 1.58999,-1.06984 3.34631,-1.86886 5.01947,-2.8033 -0.11008,0.35568 -0.15045,0.72718 -0.24315,1.08836 -0.21027,0.81924 -0.48828,1.6211 -0.78133,2.41359 -1.29421,3.32457 -2.75745,6.58306 -4.87352,9.48268 -0.4314,0.61368 -0.85072,1.23604 -1.29419,1.84105 -1.83616,2.505 -3.94065,4.80845 -5.61716,7.43184 -2.01719,2.44743 -0.57734,0.88773 -6.11481,4.18534 -0.76047,0.45287 -1.66669,0.6037 -2.43613,0.12037 -0.5854,-0.67374 -0.73426,-1.45273 -0.62237,-2.33639 0.13069,-1.42874 0.35565,-2.84589 0.73153,-4.23251 0.064,-0.25848 0.12569,-0.51752 0.19185,-0.77545 0.0513,-0.19993 -0.0146,-0.48874 0.16045,-0.59806 12.02113,-7.506 5.8585,-3.69276 4.78169,-2.33683 -0.63382,0.86583 -1.34661,1.66574 -2.039,2.48436 -2.27343,2.83478 -4.36248,4.30068 -8.08359,5.93374 -0.9207,0.31507 -1.85661,0.3762 -2.8248,0.27452 -1.10859,-0.0803 -2.24869,-0.15738 -3.2788,-0.60992 -0.66005,-0.36229 -1.11585,-0.85249 -1.43257,-1.54271 -0.46682,-1.0529 -0.80995,-2.15377 -1.21456,-3.23145 -1.00318,-2.12802 -0.45025,-0.55527 4.53371,-3.36828 0.0842,-0.0475 -0.0665,0.18165 -0.0952,0.27397 -0.14775,0.47532 -0.25469,0.96161 -0.27391,1.46103 -0.12023,0.96794 -0.26976,1.92983 -0.42055,2.89338 -0.0311,0.19838 0.0764,0.48475 -0.0912,0.59545 -1.61731,1.06872 -3.38919,1.88278 -5.08378,2.82416 0.0199,-0.72486 0.032,-1.44992 0.0506,-2.17483 0.0195,-1.37365 0.0485,-2.7522 -0.0803,-4.12167 -0.10157,-0.63519 -0.21154,-1.62997 -0.89339,-1.91161 -0.232,0.0285 -0.19531,0.007 -0.42917,0.11487 -0.10764,0.0495 -0.41871,0.22142 -0.31661,0.16136 8.0924,-4.76036 4.97028,-3.06074 3.36699,-1.86479 -1.66685,1.48788 -3.21108,3.08793 -4.43632,4.97025 -1.06337,1.5213 -5.910758,9.36143 -8.008327,5.84004 -0.523949,-1.11961 -0.905266,-2.30517 -1.209651,-3.50165 -0.359524,-1.87031 -0.506338,-3.75363 -0.423217,-5.65911 -0.0057,-0.25932 -0.226647,-0.62516 -0.01707,-0.77798 1.705697,-1.2437 6.703745,-4.49171 4.562885,-2.19565 -0.958437,1.2603 -2.116294,2.35431 -3.029225,3.65299 -2.49613,3.18752 -2.643262,3.32557 -7.496704,5.69263 -0.4756,0.23195 -0.621258,-0.26811 -0.729438,-0.50781 -0.179983,-1.10474 -0.03467,-2.17322 0.237291,-3.2582 0.438042,-1.79688 1.012619,-3.56585 1.865271,-5.21285 1.798835,-0.87417 3.576013,-1.79439 5.396507,-2.62251 0.05394,-0.0245 0.0066,0.12361 -0.01974,0.17668 -0.08909,0.17929 -0.553045,0.20211 -0.623964,0.40997 -0.807873,0.62398 -1.552763,1.3414 -2.241166,2.09601 -1.2289,1.36173 -2.310612,2.83621 -3.521009,4.21364 -1.895377,1.95799 -4.03575,3.6471 -5.93576,5.59963 -0.603002,0.69254 -1.020093,1.14072 -1.560055,1.88146 -1.024398,1.40532 -1.817751,2.96066 -2.801345,4.39266 -1.177353,1.8601 -0.262945,0.45686 -1.47194,2.20811 -0.568341,0.82325 -1.197946,1.66528 -1.560015,2.60802 -0.06784,0.17664 -0.09799,0.36555 -0.146982,0.5483 -0.0033,0.0894 -0.05317,0.18986 -0.0099,0.26815 0.236077,0.42738 1.359268,0.32327 1.722491,0.24016 1.804786,-0.60123 4.437358,-2.36005 -3.328398,2.13061 -0.1857,0.1074 0.371018,-0.21889 0.536501,-0.35538 0.419849,-0.34632 0.666091,-0.70914 1.00289,-1.13557 1.188559,-1.78848 1.775285,-3.82849 2.092182,-5.94326 0.374952,-2.64947 0.537215,-5.32842 0.580414,-8.00309 8.5e-5,-2.21043 -0.08605,-4.42095 -0.536117,-6.59334 0,0 4.97338,-2.60378 4.97338,-2.60378 z"
       inkscape:connector-curvature="0" />
    <path
       style="fill:#000000;stroke:#000000;stroke-width:0.26458332;stroke-opacity:1"
       id="path3763"
       d="m 140.9531,234.39399 c -1.50251,-0.0412 -3.00576,-0.0366 -4.50866,-0.0314 0,0 4.45533,-3.23699 4.45533,-3.23699 v 0 c 1.53176,0.005 3.06383,0.009 4.59522,-0.0314 0,0 -4.54189,3.29988 -4.54189,3.29988 z"
       inkscape:connector-curvature="0" />
    <path
       style="fill:#000000;stroke:#000000;stroke-width:0.26458332;stroke-opacity:1"
       id="path3765"
       d="m 127.62001,230.50594 c 0.48836,-1.34027 1.01607,-2.66516 1.48734,-4.01163 0,0 5.03529,-2.35324 5.03529,-2.35324 v 0 c -0.47649,1.3289 -0.99843,2.63982 -1.44375,3.97964 0,0 -5.07888,2.38523 -5.07888,2.38523 z"
       inkscape:connector-curvature="0" />
    <path
       style="fill:#000000;stroke:#000000;stroke-width:0.26458332;stroke-opacity:1"
       id="path3767"
       d="m 78.104559,230.39946 c 0.975458,-1.07082 1.69264,-2.33743 2.439885,-3.56827 0,0 4.979955,-2.20728 4.979955,-2.20728 v 0 c -0.720812,1.21642 -1.397222,2.46989 -2.256782,3.59656 0,0 -5.163058,2.17899 -5.163058,2.17899 z"
       inkscape:connector-curvature="0" />
  </g>
</svg>
