<?xml version="1.0" encoding="UTF-8" standalone="no"?>
<!-- Created with Inkscape (http://www.inkscape.org/) -->

<svg
   xmlns:dc="http://purl.org/dc/elements/1.1/"
   xmlns:cc="http://creativecommons.org/ns#"
   xmlns:rdf="http://www.w3.org/1999/02/22-rdf-syntax-ns#"
   xmlns:svg="http://www.w3.org/2000/svg"
   xmlns="http://www.w3.org/2000/svg"
   xmlns:sodipodi="http://sodipodi.sourceforge.net/DTD/sodipodi-0.dtd"
   xmlns:inkscape="http://www.inkscape.org/namespaces/inkscape"
   width="170.62367mm"
   height="187.35443mm"
   viewBox="0 0 170.62368 187.35443"
   version="1.1"
   id="svg3794"
   inkscape:version="0.92.4 5da689c313, 2019-01-14"
   sodipodi:docname="logo.svg">
  <defs
     id="defs3788" />
  <sodipodi:namedview
     id="base"
     pagecolor="#ffffff"
     bordercolor="#666666"
     borderopacity="1.0"
     inkscape:pageopacity="0.0"
     inkscape:pageshadow="2"
     inkscape:zoom="0.73139029"
     inkscape:cx="359.282"
     inkscape:cy="359.80105"
     inkscape:document-units="mm"
     inkscape:current-layer="layer1"
     showgrid="false"
     fit-margin-top="0.9"
     fit-margin-left="0.9"
     fit-margin-right="0.9"
     fit-margin-bottom="0.9"
     inkscape:window-width="1920"
     inkscape:window-height="1026"
     inkscape:window-x="0"
     inkscape:window-y="0"
     inkscape:window-maximized="1" />
  <metadata
     id="metadata3791">
    <rdf:RDF>
      <cc:Work
         rdf:about="">
        <dc:format>image/svg+xml</dc:format>
        <dc:type
           rdf:resource="http://purl.org/dc/dcmitype/StillImage" />
        <dc:title></dc:title>
      </cc:Work>
    </rdf:RDF>
  </metadata>
  <g
     inkscape:label="Layer 1"
     inkscape:groupmode="layer"
     id="layer1"
     transform="translate(-17.497679,-5.2633888)">
    <path
       style="fill:#000000;stroke:#000000;stroke-width:0.26458332;stroke-opacity:1"
       id="path3723"
       d="m 182.24738,25.456297 c -3.02351,-1.94515 -6.16858,-3.70441 -9.28037,-5.50595 -3.33433,-1.95769 -6.57932,-4.06152 -9.89036,-6.05774 -1.42672,-0.78367 -2.77833,-1.69687 -4.20111,-2.4859 -0.42762,-0.14796 -0.7671,-0.44866 -1.17995,-0.62039 -0.36279,0.02 -0.43581,-0.22651 -0.6884,-0.33052 -0.32679,-0.11295 -0.38744,-0.0574 -0.66252,-0.33769 -0.18789,-0.11632 -0.37248,-0.11625 -0.58414,-0.1301699 -0.1386,-0.0108 -0.27516,0.0103 -0.41354,0.0143 -0.14937,-0.2345885 -0.27407,-0.3194885 -0.51118,-0.4190085 -0.1055,-0.0312 -0.18017,0.0276 -0.3137,0.0349 -2.26579,0.22575 6.08029,-3.89144 4.42834,-2.514 -0.024,0.0417 -0.0365,0.0926 -0.0719,0.12513 -0.0537,0.0493 -0.13669,0.0573 -0.19205,0.10472 -0.1,0.0857 -0.17104,0.20533 -0.26145,0.30181 -0.30395,0.44648 -0.49737,0.93119 -0.6536,1.44479 -0.56328,1.7772485 -1.28367,3.5010485 -1.98276,5.2281385 -1.30922,3.37846 -2.87123,6.64424 -4.51806,9.86855 -1.80182,3.56802 -3.75768,7.05504 -5.65956,10.57007 -2.0098,3.74744 -4.19705,7.3948 -6.29513,11.09236 -2.03868,3.53816 -4.10178,7.06316 -6.24489,10.53933 -2.13732,3.28792 -4.30369,6.55559 -6.39158,9.87558 -2.12253,3.30868 -4.26528,6.60239 -6.26845,9.98537 -1.68352,2.87958 -3.3237,5.78434 -4.96483,8.68823 -1.35809,2.37604 -2.63191,4.79761 -4.02384,7.15427 -1.02971,1.66756 -2.12174,3.29313 -3.25888,4.88875 -0.91366,1.20437 -1.58012,2.5605 -2.32272,3.869443 -0.50229,0.89154 -1.00228,1.7903 -1.61761,2.60985 -0.47125,0.59741 -0.95634,1.18407 -1.45064,1.76263 -0.8359,0.99536 -1.65374,2.00569 -2.4516,3.0318 -1.17889,1.55531 -2.30351,3.14959 -3.49318,4.6975 -1.31624,1.7428 -2.6536,3.46863 -4.06753,5.13342 -1.12134,1.35261 -2.25522,2.69433 -3.42612,4.00439 -0.43906,0.52292 -0.94614,0.98605 -1.38485,1.50871 -0.0462,-0.2731 -0.23981,-0.56144 -0.13869,-0.81931 0.0691,-0.17608 0.35567,-0.12885 0.53458,-0.19021 0.92044,-0.31563 1.83251,-0.5531 2.79047,-0.72249 1.48348,-0.1822 3.0121,-0.0981 4.49283,0.0939 1.19512,0.0946 2.33916,0.38906 3.4707,0.76542 0.85375,0.31946 1.6401,0.77129 2.41428,1.24696 0.75352,0.49937 1.50835,0.9956 2.26228,1.49469 0.70203,0.45979 1.38181,0.96147 2.09696,1.40075 0.66515,0.44529 1.39463,0.77623 2.06787,1.2087 0.61212,0.43576 1.25335,0.83028 1.85308,1.28393 0.57247,0.41712 1.02637,0.9551 1.52949,1.44661 0.48855,0.52685 0.84516,1.15517 1.31486,1.6962 0.3952,0.48639 0.74558,1.01052 1.14989,1.48815 0.2845,0.36677 0.61132,0.71874 0.95378,1.03077 0.0663,0.0611 0.17764,-0.10992 0.19516,-0.10115 0.0611,0.0306 0.0772,0.12638 0.14218,0.14767 0.0556,0.0182 -0.0232,-0.1245 0.005,-0.17554 0.11387,-0.055 0.0576,-0.0119 0.14509,-0.15533 -1.53806,0.88913 -3.06583,1.79632 -4.61419,2.6674 -0.0771,0.0434 0.13286,-0.11724 0.19438,-0.18088 0.15448,-0.15981 0.26935,-0.31229 0.40786,-0.4858 0.87621,-1.21031 1.80254,-2.37627 2.64052,-3.6158 1.72667,-2.84617 3.28244,-5.78839 5.03602,-8.61825 1.97305,-3.0162 4.10737,-5.91781 6.03368,-8.96515 1.85572,-3.12148 3.63146,-6.2864 5.53678,-9.37846 2.09159,-3.21591 4.00176,-6.544193 5.85873,-9.899463 1.7434,-3.37311 3.68752,-6.63176 5.66113,-9.87313 2.01957,-3.11389 3.68992,-6.42665 5.26759,-9.78017 1.24252,-2.87919 2.71286,-5.63006 4.40606,-8.26627 1.61496,-2.35485 3.2031,-4.72457 4.57501,-7.23061 1.10534,-2.1295 1.94969,-4.38046 2.78535,-6.62558 0.79005,-2.18028 1.81815,-4.25463 2.89873,-6.30178 1.05305,-1.87303 2.15603,-3.71735 3.19463,-5.59855 1.0207,-1.86124 1.87771,-3.80667 2.74932,-5.74067 0.88661,-2.11669 1.77301,-4.22678 2.79944,-6.28034 1.3183,-2.4767 3.00917,-4.7265 4.56392,-7.05545 0.87347,-1.26717 1.70185,-2.56335 2.54143,-3.8528 0.0591,-0.0898 0.11813,-0.17956 0.1772,-0.26934 0,0 5.15607,-2.24822 5.15607,-2.24822 v 0 c -0.0644,0.0904 -0.12877,0.18087 -0.19315,0.27131 -0.89648,1.28988 -1.73276,2.62067 -2.64843,3.89767 -1.55008,2.31531 -3.24183,4.54588 -4.58572,6.99124 -1.03418,2.03888 -1.92984,4.13453 -2.79202,6.25109 -0.8756,1.9401 -1.71272,3.90268 -2.724,5.77694 -1.03182,1.88684 -2.123,3.73921 -3.20908,5.59514 -1.07481,2.03246 -2.14462,4.06876 -2.92976,6.23623 -0.83593,2.26998 -1.69346,4.54008 -2.77535,6.70643 -1.35441,2.5347 -2.93995,4.92624 -4.58367,7.28185 -1.71007,2.61624 -3.22351,5.33332 -4.45993,8.20898 -1.57737,3.37381 -3.24874,6.71017 -5.26825,9.84522 -1.97433,3.23422 -3.93295,6.47813 -5.66658,9.85041 -1.85602,3.36077 -3.75169,6.704183 -5.84777,9.922563 -1.90399,3.08963 -3.69692,6.24029 -5.52145,9.37694 -1.91034,3.05694 -4.03257,5.9641 -6.03144,8.96223 -1.76257,2.80519 -3.33074,5.71994 -4.96696,8.59969 -0.77902,1.24061 -1.63424,2.41702 -2.52323,3.57699 -1.16873,1.99995 -3.50966,3.61461 -5.79703,3.82344 -0.16639,-0.0484 -0.0853,-0.006 -0.23294,-0.14557 -0.0266,-0.008 0.0447,0.0735 0.0181,0.0815 -0.11789,0.035 -0.35407,-0.23844 -0.43069,-0.27687 -0.33207,-0.35361 -0.68792,-0.68869 -0.96835,-1.08683 -0.39123,-0.48738 -0.75711,-0.99505 -1.14584,-1.485 -0.4394,-0.54167 -0.80146,-1.14286 -1.28316,-1.65032 -0.48382,-0.47466 -0.92657,-0.99185 -1.4883,-1.38094 -0.5964,-0.43089 -1.2108,-0.83669 -1.81867,-1.25087 -0.68944,-0.41017 -1.41512,-0.75909 -2.07923,-1.21196 -0.69974,-0.46673 -1.39213,-0.94476 -2.09159,-1.41197 -0.75105,-0.49082 -1.49215,-0.99618 -2.25116,-1.47486 -0.75113,-0.44152 -1.5097,-0.86998 -2.34083,-1.14604 -1.09866,-0.36009 -2.2265,-0.58202 -3.37887,-0.68925 -1.45606,-0.14163 -2.94376,-0.23175 -4.38946,0.0428 -0.71035,0.15429 -1.39942,0.33121 -2.0873,0.56862 -0.22198,0.0766 -0.44255,0.15733 -0.66188,0.24121 -0.187,0.0715 -0.36494,0.28167 -0.55693,0.2249 -0.29124,-0.0861 -0.46063,-0.39596 -0.69095,-0.59394 0.58335,-0.1952 1.00574,-1.05803 1.49139,-1.41794 1.20368,-1.30204 2.36678,-2.64017 3.48878,-4.01342 1.42714,-1.64751 2.7691,-3.36307 4.07652,-5.10688 1.19206,-1.53141 2.31071,-3.11438 3.45711,-4.67804 0.77397,-1.03377 1.59633,-2.02771 2.39031,-3.04542 0.50517,-0.56724 0.98409,-1.1575 1.45992,-1.74583 0.67584,-0.76472 1.18417,-1.65501 1.68112,-2.54365 0.78642,-1.30355 1.41334,-2.70113 2.3281,-3.926713 1.14109,-1.59749 2.26732,-3.20229 3.31465,-4.86416 1.42202,-2.35367 2.72339,-4.77297 4.07987,-7.16452 1.64594,-2.91707 3.30692,-5.82603 5.00043,-8.71574 2.00048,-3.39325 4.13952,-6.69757 6.27791,-10.0049 2.07572,-3.32671 4.22667,-6.60272 6.3909,-9.87212 2.15659,-3.4701 4.21652,-6.9991 6.27337,-10.52877 2.08531,-3.69646 4.27815,-7.33234 6.28181,-11.07493 1.89646,-3.51398 3.85475,-6.99574 5.66076,-10.55745 1.63841,-3.19215 3.20171,-6.42264 4.46006,-9.78706 0.67142,-1.69149 1.34888,-3.38727 1.88368,-5.12704 0.15921,-0.53646 0.25423,-1.08735 0.57143,-1.5582585 0.0496,-0.12985 0.23207,-0.54234 0.35046,-0.63037 0.0327,-0.0243 0.0813,-0.005 0.12198,-0.007 1.22221,-1.65294 3.31624,-3.13711 5.37578,-2.98101 0.17199,0.02 0.31468,0.0695 0.4552,0.17392 0.0792,0.0484 0.48568,0.44175 0.35641,0.195 0.1575,0.004 0.31159,0.0233 0.46428,0.0641 0.27918,0.0712 0.53302,0.19957 0.75343,0.3872 0.17739,0.0967 0.45212,0.0904 0.6146,0.2662 0.20343,0.15523 0.43131,0.14253 0.6562,0.28707 0.39068,0.22252 0.76821,0.46617 1.16766,0.67431 1.37173,0.84537 2.70223,1.7569885 4.09301,2.5722985 3.24522,2.06279 6.46857,4.16351 9.79049,6.10196 3.1612,1.81264 6.33332,3.60601 9.50104,5.40625 0,0 -4.71853,3.02122 -4.71853,3.02122 z"
       inkscape:connector-curvature="0" />
    <path
       style="fill:#000000;stroke:#000000;stroke-width:0.26458332;stroke-opacity:1"
       id="path3727"
       d="m 22.94881,144.52639 c 4.88876,-0.94102 9.69885,-2.26756 14.50251,-3.56636 7.81208,-2.22152 15.41558,-5.10932 22.99036,-8.02289 6.44743,-2.38056 12.67923,-5.27523 18.89938,-8.18345 2.8645,-1.42639 5.77345,-2.75769 8.66477,-4.12728 1.18313,2.86553 0.57483,0.67599 -5.58219,4.22186 -0.66665,0.38393 -1.3175,0.8052 -2.0253,1.10661 -0.57757,0.24595 2.16641,-1.26915 1.63232,-0.93926 -1.16579,0.72007 -2.35191,1.40672 -3.52786,2.11008 -1.29772,0.80866 -2.59544,1.61731 -3.89316,2.42597 -8.4889,5.14788 -16.72762,10.69723 -24.91307,16.3113 -5.31424,3.65559 -10.53783,7.44015 -15.71251,11.29001 -1.29582,1.01635 -0.89654,0.69975 -2.03415,1.60319 -0.20682,0.16424 -0.37063,0.58005 -0.62005,0.49323 -0.25579,-0.089 0.043,-0.86802 -0.21442,-0.78371 -1.24239,0.40697 -6.61804,3.90219 -1.96553,0.92525 8.3908,-5.52271 17.02902,-10.63831 25.85595,-15.43084 1.47919,-0.77504 2.95682,-1.55305 4.43756,-2.32512 2.13014,-1.11066 6.51305,-3.38898 8.69276,-4.46632 3.8492,-1.90252 7.76797,-3.6592 11.67779,-5.43188 4.67959,-2.1186 9.33254,-4.2933 13.93625,-6.57214 0.35501,-0.1685 0.67207,-0.50845 1.06502,-0.50551 0.21087,0.002 0.43523,0.31709 0.36574,0.51619 -0.16222,0.46478 -0.57659,0.80771 -0.94267,1.13684 -0.6137,0.55176 -1.30796,1.00719 -1.97797,1.48902 -0.7469,0.53712 -5.78742,4.01223 -6.29211,4.36079 -7.98193,5.58287 -15.99859,11.11888 -23.88894,16.83105 -5.13626,3.85505 -10.58285,7.27017 -15.75244,11.07689 -0.76107,0.59344 -1.5086,1.15954 -2.24082,1.78503 -0.22927,0.19585 -0.38646,0.50736 -0.67127,0.6064 -0.11546,0.0401 -0.013,-0.24414 -0.0195,-0.36621 0.2578,-0.22483 1.08829,-0.80807 0.77339,-0.6745 -1.0098,0.42831 -1.92705,1.04834 -2.89057,1.57251 6.65138,-4.49659 12.81997,-9.65717 19.14293,-14.59436 6.36064,-5.1104 13.09528,-9.71726 19.72763,-14.45997 1.92708,-1.41797 3.90692,-2.76278 5.84208,-4.16942 0.40316,-0.29305 0.79933,-0.59561 1.19836,-0.89427 0.30354,-0.22719 0.55477,-0.549 0.90934,-0.68328 1.37692,-0.52147 2.82158,-0.84266 4.23237,-1.26399 -5.61418,4.90319 -11.27889,9.74848 -16.99359,14.53437 -6.31951,5.47886 -12.64133,10.95151 -18.81324,16.59656 -2.81886,2.72093 -5.64181,5.45729 -8.21937,8.41224 -0.34373,0.0874 0.65551,-0.85538 0.39013,-0.75568 -1.15806,0.43505 -2.06096,1.42945 -3.23541,1.81809 -0.83149,0.27515 1.46103,-0.96665 2.17885,-1.46846 2.49567,-1.74467 3.42887,-2.48804 5.92983,-4.37639 7.4123,-5.67185 14.37701,-11.88882 21.14235,-18.30933 4.93548,-4.62254 9.46538,-9.643 14.08963,-14.56844 2.05694,-2.19826 2.95267,-4.07284 6.7344,-4.05521 0.74471,0.003 -1.09583,1.00928 -1.62423,1.53407 -0.7339,0.72888 -1.44121,1.48405 -2.16181,2.22608 -6.59714,6.90202 -12.60838,14.31963 -18.5734,21.76446 -4.43568,5.68144 -8.46824,11.65976 -12.67833,17.50729 -0.11716,0.15577 -1.88876,2.51366 -2.13839,2.83695 -0.24292,0.31461 -0.36092,0.81907 -0.74145,0.93389 -0.22195,0.067 0.16567,-0.7606 -0.0561,-0.69322 -1.3034,0.39587 -2.30592,1.65753 -3.65822,1.82138 -0.8232,0.0997 1.26534,-1.07207 1.89801,-1.60811 6.0948,-5.29755 11.88751,-10.92271 17.63541,-16.59018 5.73201,-5.70723 10.9977,-11.86307 15.91894,-18.27674 2.79529,-3.69039 5.29676,-7.6118 7.23274,-11.82132 0.12557,-0.305 0.25114,-0.61 0.37671,-0.915 -0.021,0.11229 -0.17059,0.37554 -0.0631,0.33687 1.34878,-0.4852 2.50703,-1.83339 3.93673,-1.73032 0.8208,0.0592 -1.07537,1.24718 -1.57571,1.90053 -1.59273,2.07979 -2.95639,4.18326 -4.42532,6.3601 -5.84856,8.89959 -10.83943,18.33118 -15.76996,27.76005 -3.05723,6.01222 -5.91048,12.12589 -8.76315,18.23712 -1.3623,2.84832 -1.41532,3.48864 -6.04868,4.24501 -0.55707,0.0909 0.57195,-0.97338 0.8683,-1.45376 1.17718,-1.90824 2.38795,-3.79555 3.58337,-5.69241 5.76871,-8.82701 11.90938,-17.39409 18.13888,-25.89875 5.18437,-7.07977 10.66042,-13.93813 15.89128,-20.98288 0.49777,-0.70995 1.00112,-1.41602 1.49329,-2.12986 0.38926,-0.56455 0.77429,-1.1321 1.1509,-1.70516 0.28797,-0.43816 0.55163,-0.89206 0.84264,-1.32821 0.10341,-0.15497 0.16621,-0.37593 0.33968,-0.44382 5.76512,-2.25613 5.56085,-3.04399 4.12685,0.23301 -3.82704,8.27411 -7.81529,16.4716 -11.71564,24.71108 -3.71507,8.00326 -7.39845,16.02124 -11.12653,24.01844 -1.39906,2.96667 -2.80116,5.93215 -4.14316,8.9252 -0.71421,1.89597 -0.41595,1.43512 -4.79127,2.28509 -0.53492,0.10392 0.79596,-0.74822 1.14567,-1.16611 2.11633,-2.52892 3.77186,-5.43464 5.47702,-8.23995 5.04052,-8.28031 8.70724,-17.28036 12.27871,-26.2623 2.14416,-5.47369 4.20937,-10.98738 5.84734,-16.63724 0.64284,-2.21734 0.9996,-3.74836 1.54319,-5.95092 0.41008,-1.74893 0.78292,-3.50738 1.07029,-5.28096 0.0521,-0.32163 0.0975,-0.64432 0.14203,-0.96708 0.0287,-0.208 -0.10797,-0.52673 0.0775,-0.62511 1.58653,-0.84148 3.31965,-1.37136 4.97947,-2.05703 -1.37955,7.59419 -3.07778,15.12528 -4.67094,22.67639 -2.15575,10.57815 -4.01578,21.21317 -5.93758,31.83538 -1.08309,5.68953 -2.17606,11.37924 -3.46054,17.02737 -0.10135,0.43132 -0.20329,0.8625 -0.30402,1.29396 -0.23308,0.9983 -0.1947,0.83577 -0.39273,1.72053 -0.0346,0.15459 0.0371,0.39152 -0.10384,0.46375 -5.61085,2.87455 -5.41727,3.80179 -4.68186,0.70201 2.10509,-7.9141 4.2426,-15.81639 6.53957,-23.67717 2.33689,-7.69936 4.67338,-15.41578 6.3049,-23.30253 0.27546,-1.33155 0.50353,-2.67247 0.7553,-4.00869 0.85408,-4.90207 1.32763,-9.86072 1.46223,-14.83258 0.0286,-2.84662 -0.73094,-3.27492 5.00155,-3.65049 0.54504,-0.0357 -0.002,1.09242 -0.003,1.63864 -5.3e-4,0.85722 -2e-4,1.71444 -2.6e-4,2.57166 -0.21948,9.97022 -0.2485,19.94072 -0.12817,29.91225 0.31226,11.11782 0.69783,22.23428 1.0825,33.35007 0,0 -4.47031,2.29171 -4.47031,2.29171 v 0 c -0.16793,-11.14752 -0.66433,-22.28436 -0.93964,-33.42914 -0.16013,-9.89911 -0.16803,-19.79873 -0.28182,-29.69804 -0.0369,-0.83581 -0.0654,-1.67203 -0.11082,-2.50741 -0.0284,-0.52109 -0.48384,-1.19694 -0.11059,-1.56166 5.84069,-5.70713 4.9577,-4.37045 4.85337,-1.38452 -0.29312,5.05117 -0.85098,10.08639 -1.75921,15.0661 -0.26195,1.34753 -0.50064,2.6998 -0.78587,4.0426 -1.67884,7.90357 -4.03693,15.64128 -6.37379,23.36853 -2.23368,7.75714 -4.36161,15.54535 -6.10489,23.42981 -0.60464,3.08292 0.0384,1.5716 -5.30624,4.09364 -0.14821,0.0699 0.098,-0.31283 0.14191,-0.47073 0.28373,-1.02074 0.52303,-2.05378 0.81632,-3.07199 1.47706,-5.67663 2.65543,-11.42587 3.8252,-17.17206 2.05726,-10.62393 3.9588,-21.2774 6.04206,-31.89635 1.49718,-7.4094 3.17811,-14.80501 4.07902,-22.31698 1.68443,-0.96842 3.28578,-2.09841 5.05331,-2.90527 0.20095,-0.0917 -0.0781,0.43482 -0.11763,0.65216 -0.39089,2.15099 -0.86101,4.28602 -1.41941,6.40026 -0.56241,2.12885 -1.01453,3.90582 -1.65542,6.0345 -1.70904,5.67641 -3.81343,11.22235 -5.97504,16.73875 -3.54629,8.97163 -7.19468,17.95416 -12.11782,26.27788 -1.73708,2.98182 -1.9346,3.42278 -3.72592,6.14599 -0.45692,0.6946 -0.92302,1.38367 -1.41215,2.05598 -0.30778,0.42305 -0.52364,0.96741 -0.97717,1.22819 -1.79322,1.03106 -3.71059,1.84427 -5.64422,2.57897 -0.16598,0.0631 0.11863,-0.33469 0.17795,-0.50204 1.47348,-3.031 2.96624,-6.05205 4.45993,-9.07325 3.87966,-8.00432 7.63532,-16.06788 11.38373,-24.13429 3.84079,-8.12973 7.76384,-16.2245 11.29602,-24.49527 1.42904,-3.51592 0.21565,-1.55162 5.95144,-4.62138 0.18853,-0.10089 -0.38232,0.2138 -0.51674,0.38009 -0.34301,0.42433 -0.59065,0.91773 -0.89721,1.3691 -0.87339,1.28596 -1.87865,2.66505 -2.7782,3.91761 -5.35742,7.05851 -10.92121,13.95879 -16.17233,21.09819 -6.20469,8.43419 -12.31447,16.93727 -17.94538,25.77008 -1.08444,1.7954 -2.26595,3.72286 -3.31767,5.55602 -0.24896,0.43395 -0.3018,1.04385 -0.72158,1.31604 -1.6046,1.04043 -3.35319,1.88446 -5.16379,2.50006 -0.77056,0.26199 2.34393,-2.76487 1.15671,-2.15029 3.06301,-6.14647 6.05908,-12.32625 9.17887,-18.44423 4.94886,-9.38863 9.90648,-18.80065 15.62306,-27.75043 1.66367,-2.56368 2.48439,-3.88782 4.17834,-6.29755 0.455,-0.64726 0.77105,-1.43857 1.4032,-1.91434 1.80883,-1.36138 3.77246,-2.53095 5.81113,-3.51536 0.1975,-0.0954 0.41851,0.28733 0.41979,0.50665 0.002,0.34616 -0.27419,0.63573 -0.41128,0.95359 -2.02645,4.28178 -4.60519,8.27961 -7.46465,12.05123 -4.95502,6.44502 -10.24879,12.63695 -16.00142,18.38749 -5.68148,5.61709 -11.40644,11.18988 -17.36479,16.51537 -2.72979,2.43026 -3.3324,3.14924 -7.66322,5.21853 -0.23527,0.11241 -0.57592,-0.31744 -0.53108,-0.5743 0.0705,-0.40394 0.53682,-0.62018 0.7952,-0.93858 0.3386,-0.41726 0.66369,-0.8453 0.99543,-1.26804 0.4194,-0.53445 0.83864,-1.06901 1.25796,-1.60351 4.35298,-5.87195 8.49711,-11.89642 12.98752,-17.66544 5.92765,-7.38122 11.87625,-14.75016 18.31176,-21.7006 0.68059,-0.7326 1.35197,-1.47386 2.04178,-2.19779 0.47967,-0.50339 0.86684,-1.13132 1.46624,-1.48374 9.14486,-5.37657 5.93192,-2.97829 3.334,-0.10745 -4.76269,4.93465 -9.35727,10.03638 -14.37857,14.71647 -6.74312,6.40453 -13.67069,12.61972 -21.025,18.32153 -2.725,2.09112 -3.08971,2.40286 -5.75124,4.33154 -0.68084,0.49337 -1.34061,1.01994 -2.05781,1.45878 -2.03479,1.24505 -4.04117,2.55612 -6.19153,3.58882 -0.32416,0.15568 -0.74986,0.0558 -1.07422,-0.0995 -0.13441,-0.0643 -0.0395,-0.29539 -0.0593,-0.44309 2.6543,-3.03654 5.63501,-5.78006 8.51146,-8.59991 6.23133,-5.65346 12.60196,-11.14536 18.94486,-16.67294 5.59863,-4.69212 11.15663,-9.43688 16.57058,-14.34112 1.99633,-0.95069 3.95581,-1.98295 5.98897,-2.85207 0.3633,-0.15529 -0.63826,0.46581 -0.95599,0.70064 -2.38953,1.76608 -4.85097,3.43006 -7.26377,5.16433 -6.69206,4.75133 -13.49257,9.35885 -19.8959,14.50262 -6.24199,4.87386 -12.329,9.95948 -18.80932,14.51819 -2.14714,1.27316 -4.24197,2.63896 -6.44142,3.81947 -0.36322,0.19495 -0.79891,0.36197 -1.20368,0.28388 -0.22618,-0.0436 -0.42544,-0.36421 -0.36533,-0.58658 0.0833,-0.30809 0.45865,-0.44443 0.70036,-0.65284 0.59954,-0.51695 1.76356,-1.40704 2.33655,-1.85278 5.26249,-3.86719 10.83539,-7.29247 16.06656,-11.20577 7.87797,-5.69549 15.88958,-11.20327 23.82592,-16.81682 0.0346,-0.0241 5.70719,-3.97942 6.0835,-4.2536 0.62676,-0.45666 1.19403,-0.9953 1.84327,-1.41938 0.32969,-0.21535 0.68964,-0.41186 1.07609,-0.48752 0.11817,-0.0231 0.37308,0.1378 0.28589,0.22086 -0.27278,0.25986 -0.68181,0.32072 -1.02272,0.48107 -4.5307,2.18611 -9.09754,4.29432 -13.68732,6.35361 -8.36909,3.77245 -16.62906,7.7664 -24.68601,12.17377 -1.42209,0.77667 -2.83965,1.56166 -4.26625,2.33001 -0.0555,0.0299 0.20512,-0.14662 0.15127,-0.11374 -4.3197,2.63756 -8.60375,5.3324 -12.82815,8.12037 -2.18224,1.42004 -5.72403,3.7591 -7.47867,4.53018 -0.25423,0.11172 -0.55066,-0.37816 -0.51642,-0.65374 0.0343,-0.27609 0.44078,-0.33959 0.66098,-0.50962 1.20776,-0.93254 0.76977,-0.59374 2.13402,-1.65963 5.30208,-3.88312 10.64052,-7.71721 16.05382,-11.44423 8.1817,-5.60942 16.41617,-11.15565 24.88585,-16.32311 4.84404,-3.05025 9.68296,-5.91723 14.65438,-8.7791 0.70749,-0.40727 2.81616,-1.64958 2.13533,-1.19917 -3.6647,2.4244 -4.61491,1.16483 -3.03923,2.68811 -2.83056,1.29343 -5.65289,2.60225 -8.45376,3.95949 -6.18443,2.86657 -12.39275,5.68903 -18.79198,8.05246 -7.60193,2.9052 -15.23126,5.78244 -23.06359,8.0139 -4.93262,1.34549 -9.86539,2.71801 -14.86706,3.78603 0,0 4.47107,-3.37292 4.47107,-3.37292 z"
       inkscape:connector-curvature="0" />
  </g>
</svg>
