<?xml version="1.0" encoding="UTF-8" standalone="no"?>
<!-- Created with Inkscape (http://www.inkscape.org/) -->

<svg
   xmlns:dc="http://purl.org/dc/elements/1.1/"
   xmlns:cc="http://creativecommons.org/ns#"
   xmlns:rdf="http://www.w3.org/1999/02/22-rdf-syntax-ns#"
   xmlns:svg="http://www.w3.org/2000/svg"
   xmlns="http://www.w3.org/2000/svg"
   xmlns:sodipodi="http://sodipodi.sourceforge.net/DTD/sodipodi-0.dtd"
   xmlns:inkscape="http://www.inkscape.org/namespaces/inkscape"
   width="141.36121mm"
   height="60.394398mm"
   viewBox="0 0 141.36121 60.394398"
   version="1.1"
   id="svg3859"
   inkscape:version="0.92.4 5da689c313, 2019-01-14"
   sodipodi:docname="title.svg">
  <defs
     id="defs3853" />
  <sodipodi:namedview
     id="base"
     pagecolor="#ffffff"
     bordercolor="#666666"
     borderopacity="1.0"
     inkscape:pageopacity="0.0"
     inkscape:pageshadow="2"
     inkscape:zoom="0.35"
     inkscape:cx="289.99661"
     inkscape:cy="-308.72601"
     inkscape:document-units="mm"
     inkscape:current-layer="layer1"
     showgrid="false"
     fit-margin-top="2"
     fit-margin-left="2"
     fit-margin-right="2"
     fit-margin-bottom="2"
     inkscape:window-width="1920"
     inkscape:window-height="1026"
     inkscape:window-x="0"
     inkscape:window-y="0"
     inkscape:window-maximized="1" />
  <metadata
     id="metadata3856">
    <rdf:RDF>
      <cc:Work
         rdf:about="">
        <dc:format>image/svg+xml</dc:format>
        <dc:type
           rdf:resource="http://purl.org/dc/dcmitype/StillImage" />
        <dc:title></dc:title>
      </cc:Work>
    </rdf:RDF>
  </metadata>
  <g
     inkscape:label="Layer 1"
     inkscape:groupmode="layer"
     id="layer1"
     transform="translate(-29.105064,-6.7551822)">
    <path
       style="fill:#000000;stroke:#000000;stroke-width:0.26458332;stroke-opacity:1"
       id="path3737"
       d="m 37.758275,15.587264 c -0.144165,4.44893 -0.02071,8.90387 0.117032,13.35161 0.0829,4.26135 0.97965,8.41769 2.117701,12.50341 0,0 -4.749112,2.57642 -4.749112,2.57642 v 0 c -1.041085,-4.16073 -1.953529,-8.36643 -2.048067,-12.67545 -0.163136,-4.40356 -0.296032,-8.80835 -0.428747,-13.21285 0,0 4.991193,-2.54314 4.991193,-2.54314 z"
       inkscape:connector-curvature="0" />
    <path
       style="fill:#000000;stroke:#000000;stroke-width:0.26458332;stroke-opacity:1"
       id="path3739"
       d="m 35.617242,10.724884 c 1.894144,-0.67392 3.794439,-1.2626997 5.773642,-1.6244097 2.153293,-0.32532 4.349406,-0.2683 6.49106,0.105 1.368245,0.43993 2.437493,1.0039597 2.363211,2.6474797 -0.01516,0.33536 -0.118885,0.66079 -0.178326,0.99117 -0.730086,1.75084 -1.930641,3.25203 -3.019547,4.78972 0,0 -5.02087,2.1771 -5.02087,2.1771 v 0 c 1.069906,-1.48054 2.182904,-2.94773 3.048697,-4.56022 0.07705,-0.27999 0.189823,-0.55252 0.231143,-0.83995 0.199925,-1.39072 -0.867497,-1.70584 -1.969745,-2.01473 -2.103054,-0.32421 -4.245554,-0.36192 -6.344584,0.0321 -1.985853,0.41418 -3.899491,1.0492 -5.805697,1.73915 0,0 4.431016,-3.44244 4.431016,-3.44244 z"
       inkscape:connector-curvature="0" />
    <path
       style="fill:#000000;stroke:#000000;stroke-width:0.26458332;stroke-opacity:1"
       id="path3741"
       d="m 48.848184,32.778774 c 0.572781,1.18046 0.994836,2.72018 2.158116,3.46031 0.13552,-0.0331 0.276297,-0.0495 0.406557,-0.0994 0.440065,-0.16881 0.854188,-0.39927 1.273161,-0.61517 0.282276,-0.14545 1.111769,-0.61414 0.836634,-0.4556 -4.48473,2.58424 -4.98357,2.94476 -2.927384,1.58117 1.243324,-0.88192 2.503156,-1.78839 3.316062,-3.10153 0.980922,-2.37451 -2.059392,-1.31596 5.257591,-2.99797 0.327869,-0.0754 0.0468,0.67123 0.06657,1.00707 0.02712,0.46078 0.04938,0.92183 0.07407,1.38275 0.189275,3.48567 0.225819,6.99046 -0.247706,10.45728 -0.114781,0.84035 -0.282739,1.67257 -0.424108,2.50886 -0.94859,4.26413 -2.230286,8.49032 -4.236282,12.38181 -0.714709,1.10008 -1.505951,2.26092 -2.656626,2.96058 -2.887546,1.75578 -4.569082,3.24133 -7.503176,3.76806 -1.137493,0.0132 -2.171986,-0.42399 -2.263784,-1.71283 -0.06816,-0.95702 0.247509,-1.45915 0.5829,-2.35445 0.267224,-0.50014 0.502838,-1.01854 0.801672,-1.50047 1.353904,-2.18353 3.127681,-4.09308 4.869483,-5.96522 1.515118,-1.62846 3.065243,-3.22403 4.593558,-4.84013 2.311729,-2.45565 4.707388,-4.82977 7.094719,-7.21123 0,0 4.849847,-2.00571 4.849847,-2.00571 v 0 c -2.416159,2.36914 -4.83281,4.73909 -7.144279,7.21174 -1.50683,1.60642 -3.036418,3.19149 -4.535605,4.80502 -1.69019,1.81914 -3.423862,3.67334 -4.761709,5.77839 -0.290663,0.45734 -0.522126,0.94973 -0.783191,1.42457 -0.28235,0.64522 -0.973481,1.79933 -0.570105,2.5785 0.309083,0.59703 1.169365,0.46464 1.684329,0.43209 2.019962,-0.54189 4.650021,-2.13407 -2.02988,1.62396 -0.351145,0.19754 0.686408,-0.42688 0.99633,-0.68432 0.886638,-0.73649 1.108126,-1.14921 1.80848,-2.07928 0.268918,-0.47905 0.563574,-0.94453 0.806752,-1.43716 1.687737,-3.41892 2.720499,-7.14939 3.611917,-10.83728 0.142666,-0.8239 0.312447,-1.64355 0.428003,-2.47169 0.477068,-3.41893 0.418449,-6.87435 0.160444,-10.30817 -0.03828,-0.44862 -0.06924,-0.89791 -0.114843,-1.34584 -0.03198,-0.31411 -0.361833,-0.73945 -0.117845,-0.93984 3.966656,-3.25783 5.432429,-4.7285 4.812886,-1.91786 -0.713457,1.46144 -1.989549,2.43899 -3.288008,3.37272 -2.590046,1.82651 -1.051213,0.78057 -6.529422,3.9032 -0.640826,0.36527 -1.568566,0.89705 -2.346179,0.86474 -0.203618,-0.008 -0.391687,-0.11274 -0.587529,-0.16912 -1.121862,-0.96453 -1.64978,-2.40892 -2.309103,-3.6994 0,0 4.88669,-2.75309 4.88669,-2.75309 z"
       inkscape:connector-curvature="0" />
    <path
       style="fill:#000000;stroke:#000000;stroke-width:0.26458332;stroke-opacity:1"
       id="path3761"
       d="m 74.080295,24.915934 c 0.322792,2.22678 0.450816,4.46045 0.448067,6.70831 -0.03724,2.69312 -0.192024,5.38999 -0.534668,8.06209 -0.291497,2.15732 -0.864044,4.23944 -1.948209,6.13134 -1.74059,2.57148 -4.697344,4.37425 -7.73049,5.01319 -0.556662,0.0159 -1.712732,-0.083 -2.031124,-0.65098 -0.106572,-0.19013 -0.122362,-0.41838 -0.183542,-0.62756 0.02614,-0.24738 0.01836,-0.50078 0.07844,-0.74218 0.259578,-1.04316 0.94038,-1.97617 1.53198,-2.84848 1.876965,-2.76751 -0.396375,0.67207 1.494692,-2.20883 0.980774,-1.42953 1.789634,-2.97041 2.781925,-4.39234 0.614767,-0.88093 0.842158,-1.1148 1.536118,-1.94333 1.848786,-2.00725 3.996809,-3.69974 5.91871,-5.63359 1.23466,-1.32195 2.285439,-2.79513 3.469005,-4.16095 0.641782,-0.79595 1.415185,-1.45853 2.161109,-2.15007 0.203182,-0.0823 0.351055,-0.40407 0.568312,-0.46317 0.03178,-0.009 0.06686,0.026 0.09772,0.0145 1.648439,-0.61339 3.285647,-1.25655 4.928471,-1.88483 -0.967304,1.55531 -1.551572,3.30924 -1.996594,5.07522 -0.232002,0.99984 -0.42002,2.00321 -0.26816,3.0249 0.02159,0.0473 0.03199,0.18229 0.06478,0.14192 0.09266,-0.11407 0.288472,-0.47458 0.15517,-0.41269 -1.465268,0.68026 -2.791899,1.63574 -4.256749,2.31691 -0.296797,0.13801 0.488759,-0.43631 0.717015,-0.67091 0.579787,-0.59589 0.982835,-1.11973 1.508356,-1.76432 0.902946,-1.26377 1.982877,-2.38474 2.939589,-3.6045 1.385853,-1.76291 2.190396,-1.7891 5.580803,-2.57916 0.264711,-0.0617 -0.0113,0.5435 -0.01701,0.81524 -0.118211,1.87459 0.02421,3.72864 0.36771,5.57078 0.28118,1.15291 0.679421,2.27848 1.19272,3.34846 1.100331,1.65907 0.398201,0.43264 -4.529254,2.43373 -0.236892,0.0962 0.390091,-0.33314 0.559922,-0.52427 0.229656,-0.25846 0.427617,-0.54351 0.634812,-0.8203 0.397087,-0.53046 1.039699,-1.44125 1.41736,-1.97221 1.231921,-1.86993 2.711281,-3.52759 4.33723,-5.05739 1.82431,-1.59886 3.97737,-2.54689 6.141799,-3.76045 0.36635,-0.2054 0.66075,-0.11824 1.01012,0.0375 0.80848,0.59292 1.0212,1.56257 1.19703,2.49655 0.15218,1.399 0.12471,2.80907 0.12208,4.21404 0.004,0.71625 -0.004,1.43252 0.002,2.14875 -1.66532,0.73842 -3.26371,1.65148 -4.995967,2.21525 -0.203152,0.0661 0.0831,-0.41911 0.122399,-0.62912 0.17821,-0.95305 0.321058,-1.90889 0.438629,-2.87113 0.0149,-0.16319 0.184041,-1.74347 0.28362,-1.79465 5.267429,-2.70751 4.424319,-4.11401 5.421859,-1.78817 0.38856,1.07916 0.7429,2.17644 1.23453,3.21447 0.26942,0.60658 0.65884,0.94528 1.24085,1.22104 1.005,0.33494 2.07802,0.38199 3.12826,0.43103 0.93769,0.0713 1.84777,-0.009 2.66329,-0.49668 2.07104,-1.28771 -1.29178,0.81286 -3.74078,2.0758 -0.23608,0.12175 0.4138,-0.33365 0.61053,-0.51214 0.62356,-0.56574 1.17219,-1.19849 1.71651,-1.83833 0.66008,-0.80944 1.3557,-1.59181 1.98242,-2.42792 1.23373,-1.7439 1.85737,-1.4696 5.41894,-2.38924 0.22635,-0.0584 -0.10345,0.456 -0.16037,0.68274 -0.0661,0.26316 -0.13903,0.52454 -0.20855,0.78681 -0.37635,1.35522 -0.61066,2.73975 -0.74082,4.13845 -0.0642,0.68505 -0.10352,1.40045 0.42325,1.90575 0.47874,0.0684 0.94337,-0.0906 1.36677,-0.30859 0.21137,-0.10881 0.81646,-0.48687 0.60675,-0.37488 -4.29115,2.29148 -5.18526,3.36972 -3.317,1.44212 2.29991,-3.14045 4.81125,-6.11458 7.07934,-9.27837 2.08926,-2.84024 3.57388,-6.01704 4.80429,-9.30128 0.37461,-1.09824 0.78157,-2.20726 0.9306,-3.36482 1.68715,-0.74821 3.30517,-1.67735 5.06143,-2.24464 0.19365,-0.0625 0.005,0.40715 -0.002,0.6105 -0.0123,0.3225 -0.0317,0.6448 -0.058,0.96646 -0.12026,1.47335 -0.33963,2.93399 -0.55172,4.39607 -0.48988,3.50517 -1.19605,6.97269 -1.8471,10.44968 -0.19248,1.37744 -0.63668,2.78605 -0.38314,4.18315 0.15199,0.45315 0.36027,1.19948 0.85923,1.38366 1.64303,-0.26764 3.21099,-0.72528 4.73592,-1.39258 1.6268,-1.0204 5.81054,-2.92237 -1.90541,1.0677 -0.28101,0.14531 0.51315,-0.37026 0.76422,-0.56274 0.47385,-0.36328 0.68921,-0.55859 1.13044,-0.93835 0.49344,-0.43748 0.96457,-0.89929 1.41693,-1.37891 0.42604,-0.4561 -1.18722,1.23265 0.12727,0.74901 1.50318,-0.55306 2.7694,-1.61063 4.17268,-2.38283 0.26115,-0.14371 -0.50278,0.32104 -0.74404,0.49612 -0.54959,0.39884 -0.83028,0.66698 -1.33546,1.11231 -1.46264,1.60669 -0.81315,3.26384 0.0346,4.99656 0.34258,0.54615 0.70614,1.37129 1.40049,1.58656 0.32357,0.10033 0.47847,-0.0527 0.73411,-0.19465 -1.50702,0.82946 -3.01401,1.65895 -4.52102,2.48841 0.9068,-0.88419 0.98864,-2.23444 1.10306,-3.42742 0.0718,-1.00013 0.0833,-2.00367 0.0628,-3.00584 -0.003,-0.28294 -0.009,-0.56589 -0.0228,-0.84855 -0.73365,-3.02209 6.24579,-3.03371 8.39883,-3.1703 1.44765,-0.008 2.87126,-0.23329 4.29819,-0.44612 0.64518,-0.0879 1.29546,-0.13326 1.94633,-0.14231 0.99863,-0.0368 0.52217,1.79398 0.46554,2.36651 -0.14495,1.47266 -0.21001,2.95129 -0.24656,4.43009 -0.004,0.85938 -0.10481,1.38971 0.64762,1.9103 1.81661,0.74367 3.80976,0.75526 5.74225,0.73916 2.48576,0.0644 4.76733,-0.82896 7.04316,-1.70305 0,0 -4.25846,3.33262 -4.25846,3.33262 v 0 c -2.34016,0.84777 -4.69285,1.66201 -7.22273,1.59681 -2.04074,-0.005 -4.18893,-0.0233 -6.04656,-0.97653 -0.87146,-0.73108 -0.93957,-1.26545 -0.8941,-2.37636 0.0532,-1.49212 0.13752,-2.98314 0.2553,-4.47161 0.0321,-0.39704 -0.0146,-1.25843 0.22453,-1.60132 0.0148,-0.0212 -0.28047,0.36397 -0.26022,0.08 -0.63011,0.029 -1.25904,0.0798 -1.88311,0.17448 -1.41862,0.19567 -2.84122,0.32688 -4.27326,0.37456 -0.86841,0.0601 -1.73621,0.13166 -2.60566,0.1754 -0.20341,0.0102 -0.77841,0.14048 -0.61053,0.0252 4.35964,-2.99498 5.50575,-1.25779 4.31968,-2.89834 -0.002,0.2905 -0.003,0.581 -0.002,0.8715 -0.013,1.02622 -0.0314,2.05271 -0.095,3.0773 -0.0963,1.30753 -0.19846,2.66391 -0.87795,3.81968 -4.23071,2.46437 -5.34374,4.90169 -7.63143,0.9463 -0.71483,-1.46537 -1.52984,-3.24497 -0.8293,-4.88353 0.11511,-0.26923 0.30895,-0.49747 0.46342,-0.7462 0.63113,-0.58583 1.27605,-1.26157 2.02132,-1.7057 3.19933,-1.90656 4.01585,-4.4294 6.18673,-2.63402 0.0299,0.0247 -0.0519,0.0578 -0.0778,0.0867 -0.46737,0.50564 -0.95173,0.99579 -1.4624,1.45798 -2.79807,2.50362 -6.14334,4.27227 -9.48613,5.94922 -1.17639,0.46257 -3.32312,1.25479 -4.60273,1.15579 -0.18918,-0.0146 -0.36732,-0.0953 -0.55099,-0.14296 -0.52907,-0.46308 -0.87635,-1.09744 -1.05857,-1.77417 -0.31673,-1.48672 0.13294,-2.97328 0.40094,-4.43555 0.71584,-3.46483 1.45989,-6.92581 1.89769,-10.4404 0.19158,-1.43179 0.39717,-2.8628 0.48381,-4.30598 0.0183,-0.30432 0.0279,-0.60925 0.0301,-0.91412 10e-4,-0.18716 -0.17449,-0.45668 -0.0192,-0.56117 1.58999,-1.06984 3.34631,-1.86886 5.01947,-2.8033 -0.11008,0.35568 -0.15045,0.72718 -0.24315,1.08836 -0.21027,0.81924 -0.48828,1.6211 -0.78133,2.41359 -1.29421,3.32457 -2.75745,6.58306 -4.87352,9.48268 -0.43139,0.61368 -0.85072,1.23604 -1.29419,1.84105 -1.83616,2.505 -3.94065,4.80845 -5.61716,7.43184 -2.01719,2.44743 -0.57734,0.88773 -6.11481,4.18534 -0.76047,0.45287 -1.66669,0.6037 -2.43613,0.12037 -0.5854,-0.67374 -0.73426,-1.45273 -0.62237,-2.33639 0.13069,-1.42874 0.35565,-2.84589 0.73153,-4.23251 0.064,-0.25848 0.12569,-0.51752 0.19185,-0.77545 0.0513,-0.19993 -0.0146,-0.48874 0.16045,-0.59806 12.02113,-7.506 5.8585,-3.69276 4.78169,-2.33683 -0.63382,0.86583 -1.34661,1.66574 -2.039,2.48436 -2.27343,2.83478 -4.36248,4.30068 -8.08359,5.93374 -0.9207,0.31507 -1.85661,0.3762 -2.8248,0.27452 -1.10859,-0.0803 -2.24869,-0.15738 -3.2788,-0.60992 -0.66005,-0.36229 -1.11585,-0.85249 -1.43257,-1.54271 -0.46682,-1.0529 -0.80995,-2.15377 -1.214559,-3.23145 -1.003181,-2.12802 -0.45025,-0.55527 4.533709,-3.36828 0.0842,-0.0475 -0.0665,0.18165 -0.0952,0.27397 -0.14775,0.47532 -0.25469,0.96161 -0.27391,1.46103 -0.12023,0.96794 -0.26976,1.92983 -0.42055,2.89338 -0.0311,0.19838 0.0764,0.48475 -0.0912,0.59545 -1.61731,1.06872 -3.38919,1.88278 -5.08378,2.82416 0.0199,-0.72486 0.032,-1.44992 0.0506,-2.17483 0.0195,-1.37365 0.0485,-2.7522 -0.0803,-4.12167 -0.101571,-0.63519 -0.21154,-1.62997 -0.893392,-1.91161 -0.232,0.0285 -0.19531,0.007 -0.42917,0.11487 -0.107638,0.0495 -0.418709,0.22142 -0.316609,0.16136 8.092401,-4.76036 4.970281,-3.06074 3.366991,-1.86479 -1.666852,1.48788 -3.211082,3.08793 -4.43632,4.97025 -1.063371,1.5213 -5.91076,9.36143 -8.008329,5.84004 -0.524161,-1.11961 -0.905476,-2.30517 -1.209863,-3.50165 -0.359524,-1.87031 -0.506336,-3.75363 -0.423217,-5.65911 -0.0057,-0.25932 -0.226647,-0.62516 -0.01707,-0.77798 1.705698,-1.2437 6.703746,-4.49171 4.562885,-2.19565 -0.958437,1.2603 -2.116293,2.35431 -3.029225,3.65299 -2.496132,3.18752 -2.643261,3.32557 -7.496704,5.69263 -0.475602,0.23195 -0.621257,-0.26811 -0.729438,-0.50781 -0.179982,-1.10474 -0.03467,-2.17322 0.237289,-3.2582 0.438045,-1.79688 1.012622,-3.56585 1.865273,-5.21285 1.798833,-0.87417 3.576013,-1.79439 5.396505,-2.62251 0.05394,-0.0245 0.0066,0.12361 -0.01974,0.17668 -0.08909,0.17929 -0.553045,0.20211 -0.623964,0.40997 -0.807873,0.62398 -1.552763,1.3414 -2.241166,2.09601 -1.2289,1.36173 -2.310612,2.83621 -3.521009,4.21364 -1.895377,1.95799 -4.03575,3.6471 -5.93576,5.59963 -0.603002,0.69254 -1.020094,1.14072 -1.560055,1.88146 -1.024398,1.40532 -1.817751,2.96066 -2.801345,4.39266 -1.177354,1.8601 -0.262946,0.45686 -1.471941,2.20811 -0.56834,0.82325 -1.197946,1.66528 -1.560015,2.60802 -0.06784,0.17664 -0.09799,0.36555 -0.146981,0.5483 -0.0033,0.0894 -0.05317,0.18986 -0.0099,0.26815 0.236077,0.42738 1.359267,0.32327 1.72249,0.24016 1.804786,-0.60123 4.437359,-2.36005 -3.328398,2.13061 -0.1857,0.1074 0.371018,-0.21889 0.536501,-0.35538 0.419849,-0.34632 0.666092,-0.70914 1.00289,-1.13557 1.188559,-1.78848 1.775286,-3.82849 2.092182,-5.94326 0.374952,-2.64947 0.537216,-5.32842 0.580414,-8.00309 8.5e-5,-2.21043 -0.08605,-4.42095 -0.536117,-6.59334 0,0 4.973381,-2.60378 4.973381,-2.60378 z"
       inkscape:connector-curvature="0" />
    <path
       style="fill:#000000;stroke:#000000;stroke-width:0.26458332;stroke-opacity:1"
       id="path3763"
       d="m 131.23662,26.326924 c -1.50251,-0.0412 -3.00576,-0.0366 -4.50867,-0.0314 0,0 4.45534,-3.23699 4.45534,-3.23699 v 0 c 1.53176,0.005 3.06383,0.009 4.59522,-0.0314 0,0 -4.54189,3.29988 -4.54189,3.29988 z"
       inkscape:connector-curvature="0" />
    <path
       style="fill:#000000;stroke:#000000;stroke-width:0.26458332;stroke-opacity:1"
       id="path3765"
       d="m 117.90352,22.438874 c 0.48836,-1.34027 1.01607,-2.66516 1.48734,-4.01163 0,0 5.03529,-2.35324 5.03529,-2.35324 v 0 c -0.47649,1.3289 -0.99843,2.63982 -1.44375,3.97964 0,0 -5.07888,2.38523 -5.07888,2.38523 z"
       inkscape:connector-curvature="0" />
    <path
       style="fill:#000000;stroke:#000000;stroke-width:0.26458332;stroke-opacity:1"
       id="path3767"
       d="m 68.38807,22.332394 c 0.975458,-1.07082 1.69264,-2.33743 2.439887,-3.56827 0,0 4.979953,-2.20728 4.979953,-2.20728 v 0 c -0.720812,1.21642 -1.397222,2.46989 -2.256782,3.59656 0,0 -5.163058,2.17899 -5.163058,2.17899 z"
       inkscape:connector-curvature="0" />
  </g>
</svg>
